ISO-10303-21;
HEADER;
FILE_DESCRIPTION(('FreeCAD Model'),'2;1');
FILE_NAME('Open CASCADE Shape Model','2026-02-02T14:12:57',(''),(''),
  'Open CASCADE STEP processor 7.8','FreeCAD','Unknown');
FILE_SCHEMA(('CONFIG_CONTROL_DESIGN','SHAPE_APPEARANCE_LAYER_MIM'));
ENDSEC;
DATA;
#1 = APPLICATION_PROTOCOL_DEFINITION('international standard',
  'config_control_design',1994,#2);
#2 = APPLICATION_CONTEXT(
'configuration controlled 3D designs of mechanical parts and assemblies'
  );
#3 = SHAPE_DEFINITION_REPRESENTATION(#4,#10);
#4 = PRODUCT_DEFINITION_SHAPE('','',#5);
#5 = PRODUCT_DEFINITION('design','',#6,#9);
#6 = PRODUCT_DEFINITION_FORMATION_WITH_SPECIFIED_SOURCE('','',#7,
  .NOT_KNOWN.);
#7 = PRODUCT('Fillet001','Fillet001','',(#8));
#8 = MECHANICAL_CONTEXT('',#2,'mechanical');
#9 = DESIGN_CONTEXT('',#2,'design');
#10 = ADVANCED_BREP_SHAPE_REPRESENTATION('',(#11,#15),#484);
#11 = AXIS2_PLACEMENT_3D('',#12,#13,#14);
#12 = CARTESIAN_POINT('',(0.,0.,0.));
#13 = DIRECTION('',(0.,0.,1.));
#14 = DIRECTION('',(1.,0.,-0.));
#15 = MANIFOLD_SOLID_BREP('',#16);
#16 = CLOSED_SHELL('',(#17,#119,#171,#196,#269,#293,#330,#355,#428,#453,
    #472));
#17 = ADVANCED_FACE('',(#18),#114,.F.);
#18 = FACE_BOUND('',#19,.F.);
#19 = EDGE_LOOP('',(#20,#30,#39,#47,#56,#64,#86,#94));
#20 = ORIENTED_EDGE('',*,*,#21,.F.);
#21 = EDGE_CURVE('',#22,#24,#26,.T.);
#22 = VERTEX_POINT('',#23);
#23 = CARTESIAN_POINT('',(1.,0.24,-2.775557561563E-17));
#24 = VERTEX_POINT('',#25);
#25 = CARTESIAN_POINT('',(1.,0.26,0.));
#26 = LINE('',#27,#28);
#27 = CARTESIAN_POINT('',(1.,0.,0.));
#28 = VECTOR('',#29,1.);
#29 = DIRECTION('',(0.,1.,0.));
#30 = ORIENTED_EDGE('',*,*,#31,.T.);
#31 = EDGE_CURVE('',#22,#32,#34,.T.);
#32 = VERTEX_POINT('',#33);
#33 = CARTESIAN_POINT('',(1.,-2.775557561563E-17,0.24));
#34 = CIRCLE('',#35,0.24);
#35 = AXIS2_PLACEMENT_3D('',#36,#37,#38);
#36 = CARTESIAN_POINT('',(1.,0.24,0.24));
#37 = DIRECTION('',(-1.,0.,-0.));
#38 = DIRECTION('',(-0.,0.,1.));
#39 = ORIENTED_EDGE('',*,*,#40,.T.);
#40 = EDGE_CURVE('',#32,#41,#43,.T.);
#41 = VERTEX_POINT('',#42);
#42 = CARTESIAN_POINT('',(1.,-2.775557561563E-17,0.26));
#43 = LINE('',#44,#45);
#44 = CARTESIAN_POINT('',(1.,0.,0.));
#45 = VECTOR('',#46,1.);
#46 = DIRECTION('',(0.,0.,1.));
#47 = ORIENTED_EDGE('',*,*,#48,.F.);
#48 = EDGE_CURVE('',#49,#41,#51,.T.);
#49 = VERTEX_POINT('',#50);
#50 = CARTESIAN_POINT('',(1.,0.24,0.5));
#51 = CIRCLE('',#52,0.24);
#52 = AXIS2_PLACEMENT_3D('',#53,#54,#55);
#53 = CARTESIAN_POINT('',(1.,0.24,0.26));
#54 = DIRECTION('',(1.,0.,0.));
#55 = DIRECTION('',(-0.,0.,1.));
#56 = ORIENTED_EDGE('',*,*,#57,.T.);
#57 = EDGE_CURVE('',#49,#58,#60,.T.);
#58 = VERTEX_POINT('',#59);
#59 = CARTESIAN_POINT('',(1.,0.26,0.5));
#60 = LINE('',#61,#62);
#61 = CARTESIAN_POINT('',(1.,0.,0.5));
#62 = VECTOR('',#63,1.);
#63 = DIRECTION('',(0.,1.,0.));
#64 = ORIENTED_EDGE('',*,*,#65,.F.);
#65 = EDGE_CURVE('',#66,#58,#68,.T.);
#66 = VERTEX_POINT('',#67);
#67 = CARTESIAN_POINT('',(1.,0.5,0.26));
#68 = B_SPLINE_CURVE_WITH_KNOTS('',6,(#69,#70,#71,#72,#73,#74,#75,#76,
    #77,#78,#79,#80,#81,#82,#83,#84,#85),.UNSPECIFIED.,.F.,.F.,(7,5,5,7)
  ,(0.,0.499987482699,0.839765828644,1.),.UNSPECIFIED.);
#69 = CARTESIAN_POINT('',(1.,0.5,0.26));
#70 = CARTESIAN_POINT('',(1.,0.5,0.288794505317));
#71 = CARTESIAN_POINT('',(1.,0.495853746572,0.319065586741));
#72 = CARTESIAN_POINT('',(1.,0.486768067911,0.34980463671));
#73 = CARTESIAN_POINT('',(1.,0.472297219289,0.37950971157));
#74 = CARTESIAN_POINT('',(1.,0.452896407628,0.406514847342));
#75 = CARTESIAN_POINT('',(1.,0.413945783107,0.445465471862));
#76 = CARTESIAN_POINT('',(1.,0.396427199234,0.459471620254));
#77 = CARTESIAN_POINT('',(1.,0.37749676518,0.471374460447));
#78 = CARTESIAN_POINT('',(1.,0.357615450753,0.48095811414));
#79 = CARTESIAN_POINT('',(1.,0.337271388652,0.488185920274));
#80 = CARTESIAN_POINT('',(1.,0.307294115951,0.495501694749));
#81 = CARTESIAN_POINT('',(1.,0.297680601505,0.497344559331));
#82 = CARTESIAN_POINT('',(1.,0.288105114354,0.498696285547));
#83 = CARTESIAN_POINT('',(1.,0.278609261145,0.499574014011));
#84 = CARTESIAN_POINT('',(1.,0.269230266553,0.5));
#85 = CARTESIAN_POINT('',(1.,0.26,0.5));
#86 = ORIENTED_EDGE('',*,*,#87,.F.);
#87 = EDGE_CURVE('',#88,#66,#90,.T.);
#88 = VERTEX_POINT('',#89);
#89 = CARTESIAN_POINT('',(1.,0.5,0.24));
#90 = LINE('',#91,#92);
#91 = CARTESIAN_POINT('',(1.,0.5,0.));
#92 = VECTOR('',#93,1.);
#93 = DIRECTION('',(0.,0.,1.));
#94 = ORIENTED_EDGE('',*,*,#95,.T.);
#95 = EDGE_CURVE('',#88,#24,#96,.T.);
#96 = B_SPLINE_CURVE_WITH_KNOTS('',6,(#97,#98,#99,#100,#101,#102,#103,
    #104,#105,#106,#107,#108,#109,#110,#111,#112,#113),.UNSPECIFIED.,.F.
  ,.F.,(7,5,5,7),(0.,0.160234171356,0.500012517301,1.),.UNSPECIFIED.);
#97 = CARTESIAN_POINT('',(1.,0.5,0.24));
#98 = CARTESIAN_POINT('',(1.,0.5,0.230769733447));
#99 = CARTESIAN_POINT('',(1.,0.499574014011,0.221390738855));
#100 = CARTESIAN_POINT('',(1.,0.498696285547,0.211894885646));
#101 = CARTESIAN_POINT('',(1.,0.497344559331,0.202319398495));
#102 = CARTESIAN_POINT('',(1.,0.495501694749,0.192705884049));
#103 = CARTESIAN_POINT('',(1.,0.488185920274,0.162728611348));
#104 = CARTESIAN_POINT('',(1.,0.48095811414,0.142384549247));
#105 = CARTESIAN_POINT('',(1.,0.471374460447,0.12250323482));
#106 = CARTESIAN_POINT('',(1.,0.459471620254,0.103572800766));
#107 = CARTESIAN_POINT('',(1.,0.445465471862,8.605421689281E-02));
#108 = CARTESIAN_POINT('',(1.,0.406514847342,4.71035923725E-02));
#109 = CARTESIAN_POINT('',(1.,0.37950971157,2.770278071114E-02));
#110 = CARTESIAN_POINT('',(1.,0.34980463671,1.323193208882E-02));
#111 = CARTESIAN_POINT('',(1.,0.319065586741,4.146253428319E-03));
#112 = CARTESIAN_POINT('',(1.,0.288794505317,1.110223024625E-16));
#113 = CARTESIAN_POINT('',(1.,0.26,1.110223024625E-16));
#114 = PLANE('',#115);
#115 = AXIS2_PLACEMENT_3D('',#116,#117,#118);
#116 = CARTESIAN_POINT('',(1.,0.,0.));
#117 = DIRECTION('',(-1.,0.,0.));
#118 = DIRECTION('',(0.,1.,0.));
#119 = ADVANCED_FACE('',(#120),#166,.F.);
#120 = FACE_BOUND('',#121,.F.);
#121 = EDGE_LOOP('',(#122,#123,#144,#152,#160));
#122 = ORIENTED_EDGE('',*,*,#21,.T.);
#123 = ORIENTED_EDGE('',*,*,#124,.F.);
#124 = EDGE_CURVE('',#125,#24,#127,.T.);
#125 = VERTEX_POINT('',#126);
#126 = CARTESIAN_POINT('',(0.5,1.,0.));
#127 = B_SPLINE_CURVE_WITH_KNOTS('',8,(#128,#129,#130,#131,#132,#133,
    #134,#135,#136,#137,#138,#139,#140,#141,#142,#143),.UNSPECIFIED.,.F.
  ,.F.,(9,7,9),(-7.781340149541E-17,0.785398163398,0.816049881368),
  .UNSPECIFIED.);
#128 = CARTESIAN_POINT('',(0.5,1.,0.));
#129 = CARTESIAN_POINT('',(0.487142857143,0.901825679006,
    -1.387778780781E-17));
#130 = CARTESIAN_POINT('',(0.481620334222,0.797872339831,
    -5.551115123126E-17));
#131 = CARTESIAN_POINT('',(0.490615176254,0.682407369272,
    4.579669976579E-16));
#132 = CARTESIAN_POINT('',(0.52665061506,0.556661118156,
    -1.124100812433E-15));
#133 = CARTESIAN_POINT('',(0.60148486126,0.433296597423,
    1.360023205166E-15));
#134 = CARTESIAN_POINT('',(0.715169267348,0.333015081967,
    -9.71445146547E-16));
#135 = CARTESIAN_POINT('',(0.854702004929,0.272857142857,
    3.608224830032E-16));
#136 = CARTESIAN_POINT('',(1.005670541865,0.25949822455,
    -1.408181162367E-17));
#137 = CARTESIAN_POINT('',(1.011341083731,0.2589964491,
    -2.816362324733E-17));
#138 = CARTESIAN_POINT('',(1.017011625596,0.25849467365,
    -4.2245434871E-17));
#139 = CARTESIAN_POINT('',(1.022682167462,0.257992898201,
    -5.632724649467E-17));
#140 = CARTESIAN_POINT('',(1.028352709327,0.257491122751,
    -7.040905811833E-17));
#141 = CARTESIAN_POINT('',(1.034023251193,0.256989347301,
    -8.4490869742E-17));
#142 = CARTESIAN_POINT('',(1.039693793058,0.256487571851,
    -9.857268136566E-17));
#143 = CARTESIAN_POINT('',(1.045364334924,0.255985796401,
    -1.126544929893E-16));
#144 = ORIENTED_EDGE('',*,*,#145,.F.);
#145 = EDGE_CURVE('',#146,#125,#148,.T.);
#146 = VERTEX_POINT('',#147);
#147 = CARTESIAN_POINT('',(0.,1.,0.));
#148 = LINE('',#149,#150);
#149 = CARTESIAN_POINT('',(0.,1.,0.));
#150 = VECTOR('',#151,1.);
#151 = DIRECTION('',(1.,0.,0.));
#152 = ORIENTED_EDGE('',*,*,#153,.F.);
#153 = EDGE_CURVE('',#154,#146,#156,.T.);
#154 = VERTEX_POINT('',#155);
#155 = CARTESIAN_POINT('',(0.,0.24,-2.775557561563E-17));
#156 = LINE('',#157,#158);
#157 = CARTESIAN_POINT('',(0.,0.,0.));
#158 = VECTOR('',#159,1.);
#159 = DIRECTION('',(0.,1.,0.));
#160 = ORIENTED_EDGE('',*,*,#161,.T.);
#161 = EDGE_CURVE('',#154,#22,#162,.T.);
#162 = LINE('',#163,#164);
#163 = CARTESIAN_POINT('',(0.,0.24,-2.775557561563E-17));
#164 = VECTOR('',#165,1.);
#165 = DIRECTION('',(1.,0.,0.));
#166 = PLANE('',#167);
#167 = AXIS2_PLACEMENT_3D('',#168,#169,#170);
#168 = CARTESIAN_POINT('',(0.43955898856,0.43955898856,0.));
#169 = DIRECTION('',(0.,0.,1.));
#170 = DIRECTION('',(1.,0.,0.));
#171 = ADVANCED_FACE('',(#172),#191,.T.);
#172 = FACE_BOUND('',#173,.F.);
#173 = EDGE_LOOP('',(#174,#183,#189,#190));
#174 = ORIENTED_EDGE('',*,*,#175,.T.);
#175 = EDGE_CURVE('',#154,#176,#178,.T.);
#176 = VERTEX_POINT('',#177);
#177 = CARTESIAN_POINT('',(0.,-2.775557561563E-17,0.24));
#178 = CIRCLE('',#179,0.24);
#179 = AXIS2_PLACEMENT_3D('',#180,#181,#182);
#180 = CARTESIAN_POINT('',(0.,0.24,0.24));
#181 = DIRECTION('',(-1.,0.,-0.));
#182 = DIRECTION('',(-0.,0.,1.));
#183 = ORIENTED_EDGE('',*,*,#184,.T.);
#184 = EDGE_CURVE('',#176,#32,#185,.T.);
#185 = LINE('',#186,#187);
#186 = CARTESIAN_POINT('',(0.,-2.775557561563E-17,0.24));
#187 = VECTOR('',#188,1.);
#188 = DIRECTION('',(1.,0.,0.));
#189 = ORIENTED_EDGE('',*,*,#31,.F.);
#190 = ORIENTED_EDGE('',*,*,#161,.F.);
#191 = CYLINDRICAL_SURFACE('',#192,0.24);
#192 = AXIS2_PLACEMENT_3D('',#193,#194,#195);
#193 = CARTESIAN_POINT('',(0.,0.24,0.24));
#194 = DIRECTION('',(1.,0.,0.));
#195 = DIRECTION('',(0.,0.,-1.));
#196 = ADVANCED_FACE('',(#197),#220,.F.);
#197 = FACE_BOUND('',#198,.F.);
#198 = EDGE_LOOP('',(#199,#200,#201));
#199 = ORIENTED_EDGE('',*,*,#124,.T.);
#200 = ORIENTED_EDGE('',*,*,#95,.F.);
#201 = ORIENTED_EDGE('',*,*,#202,.F.);
#202 = EDGE_CURVE('',#125,#88,#203,.T.);
#203 = B_SPLINE_CURVE_WITH_KNOTS('',8,(#204,#205,#206,#207,#208,#209,
    #210,#211,#212,#213,#214,#215,#216,#217,#218,#219),.UNSPECIFIED.,.F.
  ,.F.,(9,7,9),(-7.781340149541E-17,0.785398163398,0.816049881368),
  .UNSPECIFIED.);
#204 = CARTESIAN_POINT('',(0.5,1.,0.));
#205 = CARTESIAN_POINT('',(0.5,0.901825679006,1.285714285714E-02));
#206 = CARTESIAN_POINT('',(0.522030462598,0.803644415146,
    4.040816326532E-02));
#207 = CARTESIAN_POINT('',(0.566094073123,0.711249648102,
    7.775510204082E-02));
#208 = CARTESIAN_POINT('',(0.630365446063,0.630365446063,0.12));
#209 = CARTESIAN_POINT('',(0.711249648102,0.566094073123,0.162244897959)
  );
#210 = CARTESIAN_POINT('',(0.803644415146,0.522030462598,0.199591836735)
  );
#211 = CARTESIAN_POINT('',(0.901825679006,0.5,0.227142857143));
#212 = CARTESIAN_POINT('',(1.003831447206,0.5,0.24050177545));
#213 = CARTESIAN_POINT('',(1.008180909531,0.5,0.241071391393));
#214 = CARTESIAN_POINT('',(1.013048386975,0.5,0.24170884783));
#215 = CARTESIAN_POINT('',(1.018433879536,0.5,0.24241414476));
#216 = CARTESIAN_POINT('',(1.024337387217,0.5,0.243187282184));
#217 = CARTESIAN_POINT('',(1.030758910015,0.5,0.244028260101));
#218 = CARTESIAN_POINT('',(1.037698447932,0.5,0.244937078511));
#219 = CARTESIAN_POINT('',(1.045156000968,0.5,0.245913737415));
#220 = ( BOUNDED_SURFACE() B_SPLINE_SURFACE(2,8,(
    (#221,#222,#223,#224,#225,#226,#227,#228,#229,#230,#231,#232,#233
      ,#234,#235,#236)
    ,(#237,#238,#239,#240,#241,#242,#243,#244,#245,#246,#247,#248,#249
      ,#250,#251,#252)
    ,(#253,#254,#255,#256,#257,#258,#259,#260,#261,#262,#263,#264,#265
      ,#266,#267,#268
)),.UNSPECIFIED.,.F.,.F.,.F.) B_SPLINE_SURFACE_WITH_KNOTS((3,3),(9,7,9),
  (0.,0.785398163398),(-7.781340149541E-17,0.785398163398,0.816049881368
),.UNSPECIFIED.) GEOMETRIC_REPRESENTATION_ITEM() 
RATIONAL_B_SPLINE_SURFACE((
    (1.,1.,1.,1.,1.,1.,1.,1.,1.,1.,1.,1.,1.,1.,1.,1.)
    ,(0.707106781187,0.707106781187,0.707106781187,0.707106781187
      ,0.707106781187,0.707106781187,0.707106781187,0.707106781187
      ,0.707106781187,0.707106781187,0.707106781187,0.707106781187
      ,0.707106781187,0.707106781187,0.707106781187,0.707106781187)
    ,(1.,1.,1.,1.,1.,1.,1.,1.,1.,1.,1.,1.,1.,1.,1.,1.
))) REPRESENTATION_ITEM('') SURFACE() );
#221 = CARTESIAN_POINT('',(0.5,1.,0.));
#222 = CARTESIAN_POINT('',(0.5,0.901825679006,1.285714285714E-02));
#223 = CARTESIAN_POINT('',(0.522030462598,0.803644415146,
    4.040816326532E-02));
#224 = CARTESIAN_POINT('',(0.566094073123,0.711249648102,
    7.775510204082E-02));
#225 = CARTESIAN_POINT('',(0.630365446063,0.630365446063,0.12));
#226 = CARTESIAN_POINT('',(0.711249648102,0.566094073123,0.162244897959)
  );
#227 = CARTESIAN_POINT('',(0.803644415146,0.522030462598,0.199591836735)
  );
#228 = CARTESIAN_POINT('',(0.901825679006,0.5,0.227142857143));
#229 = CARTESIAN_POINT('',(1.003831447206,0.5,0.24050177545));
#230 = CARTESIAN_POINT('',(1.008180909531,0.5,0.241071391393));
#231 = CARTESIAN_POINT('',(1.013048386975,0.5,0.24170884783));
#232 = CARTESIAN_POINT('',(1.018433879536,0.5,0.24241414476));
#233 = CARTESIAN_POINT('',(1.024337387217,0.5,0.243187282184));
#234 = CARTESIAN_POINT('',(1.030758910015,0.5,0.244028260101));
#235 = CARTESIAN_POINT('',(1.037698447932,0.5,0.244937078511));
#236 = CARTESIAN_POINT('',(1.045156000968,0.5,0.245913737415));
#237 = CARTESIAN_POINT('',(0.5,1.,0.));
#238 = CARTESIAN_POINT('',(0.5,0.901825679006,1.110223024625E-16));
#239 = CARTESIAN_POINT('',(0.522030462598,0.803644415146,
    -3.469446951954E-16));
#240 = CARTESIAN_POINT('',(0.566094073123,0.711249648102,
    6.661338147751E-16));
#241 = CARTESIAN_POINT('',(0.630365446063,0.630365446063,
    -4.996003610813E-16));
#242 = CARTESIAN_POINT('',(0.711249648102,0.566094073123,
    9.71445146547E-17));
#243 = CARTESIAN_POINT('',(0.803644415146,0.522030462598,
    8.326672684689E-17));
#244 = CARTESIAN_POINT('',(0.901825679006,0.5,4.163336342344E-17));
#245 = CARTESIAN_POINT('',(1.003831447206,0.5,5.605275937063E-17));
#246 = CARTESIAN_POINT('',(1.008194680683,0.5,5.666954009024E-17));
#247 = CARTESIAN_POINT('',(1.013089700431,0.5,5.736149339007E-17));
#248 = CARTESIAN_POINT('',(1.018516506449,0.5,5.812861927015E-17));
#249 = CARTESIAN_POINT('',(1.024475098738,0.5,5.897091773045E-17));
#250 = CARTESIAN_POINT('',(1.030965477297,0.5,5.9888388771E-17));
#251 = CARTESIAN_POINT('',(1.037987642126,0.5,6.088103239177E-17));
#252 = CARTESIAN_POINT('',(1.045541593227,0.5,6.194884859278E-17));
#253 = CARTESIAN_POINT('',(0.5,1.,0.));
#254 = CARTESIAN_POINT('',(0.487142857143,0.901825679006,
    -1.387778780781E-17));
#255 = CARTESIAN_POINT('',(0.481620334222,0.797872339831,
    -5.551115123126E-17));
#256 = CARTESIAN_POINT('',(0.490615176254,0.682407369272,
    4.579669976579E-16));
#257 = CARTESIAN_POINT('',(0.52665061506,0.556661118156,
    -1.124100812433E-15));
#258 = CARTESIAN_POINT('',(0.60148486126,0.433296597423,
    1.360023205166E-15));
#259 = CARTESIAN_POINT('',(0.715169267348,0.333015081967,
    -9.71445146547E-16));
#260 = CARTESIAN_POINT('',(0.854702004929,0.272857142857,
    3.608224830032E-16));
#261 = CARTESIAN_POINT('',(1.005670541865,0.25949822455,
    -1.408181162367E-17));
#262 = CARTESIAN_POINT('',(1.011341083731,0.2589964491,
    -2.816362324733E-17));
#263 = CARTESIAN_POINT('',(1.017011625596,0.25849467365,
    -4.2245434871E-17));
#264 = CARTESIAN_POINT('',(1.022682167462,0.257992898201,
    -5.632724649467E-17));
#265 = CARTESIAN_POINT('',(1.028352709327,0.257491122751,
    -7.040905811833E-17));
#266 = CARTESIAN_POINT('',(1.034023251193,0.256989347301,
    -8.4490869742E-17));
#267 = CARTESIAN_POINT('',(1.039693793058,0.256487571851,
    -9.857268136566E-17));
#268 = CARTESIAN_POINT('',(1.045364334924,0.255985796401,
    -1.126544929893E-16));
#269 = ADVANCED_FACE('',(#270),#288,.F.);
#270 = FACE_BOUND('',#271,.F.);
#271 = EDGE_LOOP('',(#272,#280,#286,#287));
#272 = ORIENTED_EDGE('',*,*,#273,.T.);
#273 = EDGE_CURVE('',#176,#274,#276,.T.);
#274 = VERTEX_POINT('',#275);
#275 = CARTESIAN_POINT('',(0.,-2.775557561563E-17,0.26));
#276 = LINE('',#277,#278);
#277 = CARTESIAN_POINT('',(0.,0.,0.));
#278 = VECTOR('',#279,1.);
#279 = DIRECTION('',(0.,0.,1.));
#280 = ORIENTED_EDGE('',*,*,#281,.T.);
#281 = EDGE_CURVE('',#274,#41,#282,.T.);
#282 = LINE('',#283,#284);
#283 = CARTESIAN_POINT('',(0.,-2.775557561563E-17,0.26));
#284 = VECTOR('',#285,1.);
#285 = DIRECTION('',(1.,0.,0.));
#286 = ORIENTED_EDGE('',*,*,#40,.F.);
#287 = ORIENTED_EDGE('',*,*,#184,.F.);
#288 = PLANE('',#289);
#289 = AXIS2_PLACEMENT_3D('',#290,#291,#292);
#290 = CARTESIAN_POINT('',(0.,0.,0.));
#291 = DIRECTION('',(0.,1.,0.));
#292 = DIRECTION('',(1.,0.,0.));
#293 = ADVANCED_FACE('',(#294),#325,.F.);
#294 = FACE_BOUND('',#295,.T.);
#295 = EDGE_LOOP('',(#296,#297,#298,#306));
#296 = ORIENTED_EDGE('',*,*,#87,.F.);
#297 = ORIENTED_EDGE('',*,*,#202,.F.);
#298 = ORIENTED_EDGE('',*,*,#299,.T.);
#299 = EDGE_CURVE('',#125,#300,#302,.T.);
#300 = VERTEX_POINT('',#301);
#301 = CARTESIAN_POINT('',(0.5,1.,0.5));
#302 = LINE('',#303,#304);
#303 = CARTESIAN_POINT('',(0.5,1.,0.));
#304 = VECTOR('',#305,1.);
#305 = DIRECTION('',(0.,0.,1.));
#306 = ORIENTED_EDGE('',*,*,#307,.T.);
#307 = EDGE_CURVE('',#300,#66,#308,.T.);
#308 = B_SPLINE_CURVE_WITH_KNOTS('',8,(#309,#310,#311,#312,#313,#314,
    #315,#316,#317,#318,#319,#320,#321,#322,#323,#324),.UNSPECIFIED.,.F.
  ,.F.,(9,7,9),(-7.776257951858E-17,0.785398163398,0.816049881368),
  .UNSPECIFIED.);
#309 = CARTESIAN_POINT('',(0.5,1.,0.5));
#310 = CARTESIAN_POINT('',(0.5,0.901825679006,0.487142857143));
#311 = CARTESIAN_POINT('',(0.522030462598,0.803644415146,0.459591836735)
  );
#312 = CARTESIAN_POINT('',(0.566094073123,0.711249648102,0.422244897959)
  );
#313 = CARTESIAN_POINT('',(0.630365446063,0.630365446063,0.38));
#314 = CARTESIAN_POINT('',(0.711249648102,0.566094073123,0.337755102041)
  );
#315 = CARTESIAN_POINT('',(0.803644415146,0.522030462598,0.300408163265)
  );
#316 = CARTESIAN_POINT('',(0.901825679006,0.5,0.272857142857));
#317 = CARTESIAN_POINT('',(1.003831447206,0.5,0.25949822455));
#318 = CARTESIAN_POINT('',(1.008180909531,0.5,0.258928608607));
#319 = CARTESIAN_POINT('',(1.013048386975,0.5,0.25829115217));
#320 = CARTESIAN_POINT('',(1.018433879536,0.5,0.25758585524));
#321 = CARTESIAN_POINT('',(1.024337387217,0.5,0.256812717816));
#322 = CARTESIAN_POINT('',(1.030758910015,0.5,0.255971739899));
#323 = CARTESIAN_POINT('',(1.037698447932,0.5,0.255062921489));
#324 = CARTESIAN_POINT('',(1.045156000968,0.5,0.254086262585));
#325 = CYLINDRICAL_SURFACE('',#326,0.5);
#326 = AXIS2_PLACEMENT_3D('',#327,#328,#329);
#327 = CARTESIAN_POINT('',(1.,1.,0.));
#328 = DIRECTION('',(-0.,-0.,-1.));
#329 = DIRECTION('',(1.,0.,0.));
#330 = ADVANCED_FACE('',(#331),#350,.T.);
#331 = FACE_BOUND('',#332,.T.);
#332 = EDGE_LOOP('',(#333,#342,#343,#344));
#333 = ORIENTED_EDGE('',*,*,#334,.T.);
#334 = EDGE_CURVE('',#335,#274,#337,.T.);
#335 = VERTEX_POINT('',#336);
#336 = CARTESIAN_POINT('',(0.,0.24,0.5));
#337 = CIRCLE('',#338,0.24);
#338 = AXIS2_PLACEMENT_3D('',#339,#340,#341);
#339 = CARTESIAN_POINT('',(0.,0.24,0.26));
#340 = DIRECTION('',(1.,0.,0.));
#341 = DIRECTION('',(-0.,0.,1.));
#342 = ORIENTED_EDGE('',*,*,#281,.T.);
#343 = ORIENTED_EDGE('',*,*,#48,.F.);
#344 = ORIENTED_EDGE('',*,*,#345,.F.);
#345 = EDGE_CURVE('',#335,#49,#346,.T.);
#346 = LINE('',#347,#348);
#347 = CARTESIAN_POINT('',(0.,0.24,0.5));
#348 = VECTOR('',#349,1.);
#349 = DIRECTION('',(1.,0.,0.));
#350 = CYLINDRICAL_SURFACE('',#351,0.24);
#351 = AXIS2_PLACEMENT_3D('',#352,#353,#354);
#352 = CARTESIAN_POINT('',(0.,0.24,0.26));
#353 = DIRECTION('',(1.,0.,0.));
#354 = DIRECTION('',(0.,0.,1.));
#355 = ADVANCED_FACE('',(#356),#379,.T.);
#356 = FACE_BOUND('',#357,.T.);
#357 = EDGE_LOOP('',(#358,#377,#378));
#358 = ORIENTED_EDGE('',*,*,#359,.T.);
#359 = EDGE_CURVE('',#300,#58,#360,.T.);
#360 = B_SPLINE_CURVE_WITH_KNOTS('',8,(#361,#362,#363,#364,#365,#366,
    #367,#368,#369,#370,#371,#372,#373,#374,#375,#376),.UNSPECIFIED.,.F.
  ,.F.,(9,7,9),(-7.776257951858E-17,0.785398163398,0.816049881368),
  .UNSPECIFIED.);
#361 = CARTESIAN_POINT('',(0.5,1.,0.5));
#362 = CARTESIAN_POINT('',(0.487142857143,0.901825679006,0.5));
#363 = CARTESIAN_POINT('',(0.481620334222,0.797872339831,0.5));
#364 = CARTESIAN_POINT('',(0.490615176254,0.682407369272,0.5));
#365 = CARTESIAN_POINT('',(0.52665061506,0.556661118156,0.5));
#366 = CARTESIAN_POINT('',(0.60148486126,0.433296597423,0.5));
#367 = CARTESIAN_POINT('',(0.715169267348,0.333015081967,0.5));
#368 = CARTESIAN_POINT('',(0.854702004929,0.272857142857,0.5));
#369 = CARTESIAN_POINT('',(1.005670541865,0.25949822455,0.5));
#370 = CARTESIAN_POINT('',(1.011341083731,0.2589964491,0.5));
#371 = CARTESIAN_POINT('',(1.017011625596,0.25849467365,0.5));
#372 = CARTESIAN_POINT('',(1.022682167462,0.257992898201,0.5));
#373 = CARTESIAN_POINT('',(1.028352709327,0.257491122751,0.5));
#374 = CARTESIAN_POINT('',(1.034023251193,0.256989347301,0.5));
#375 = CARTESIAN_POINT('',(1.039693793058,0.256487571851,0.5));
#376 = CARTESIAN_POINT('',(1.045364334924,0.255985796401,0.5));
#377 = ORIENTED_EDGE('',*,*,#65,.F.);
#378 = ORIENTED_EDGE('',*,*,#307,.F.);
#379 = ( BOUNDED_SURFACE() B_SPLINE_SURFACE(2,8,(
    (#380,#381,#382,#383,#384,#385,#386,#387,#388,#389,#390,#391,#392
      ,#393,#394,#395)
    ,(#396,#397,#398,#399,#400,#401,#402,#403,#404,#405,#406,#407,#408
      ,#409,#410,#411)
    ,(#412,#413,#414,#415,#416,#417,#418,#419,#420,#421,#422,#423,#424
      ,#425,#426,#427
)),.UNSPECIFIED.,.F.,.F.,.F.) B_SPLINE_SURFACE_WITH_KNOTS((3,3),(9,7,9),
  (0.,0.785398163398),(-7.776257951858E-17,0.785398163398,0.816049881368
),.UNSPECIFIED.) GEOMETRIC_REPRESENTATION_ITEM() 
RATIONAL_B_SPLINE_SURFACE((
    (1.,1.,1.,1.,1.,1.,1.,1.,1.,1.,1.,1.,1.,1.,1.,1.)
    ,(0.707106781187,0.707106781187,0.707106781187,0.707106781187
      ,0.707106781187,0.707106781187,0.707106781187,0.707106781187
      ,0.707106781187,0.707106781187,0.707106781187,0.707106781187
      ,0.707106781187,0.707106781187,0.707106781187,0.707106781187)
    ,(1.,1.,1.,1.,1.,1.,1.,1.,1.,1.,1.,1.,1.,1.,1.,1.
))) REPRESENTATION_ITEM('') SURFACE() );
#380 = CARTESIAN_POINT('',(0.5,1.,0.5));
#381 = CARTESIAN_POINT('',(0.5,0.901825679006,0.487142857143));
#382 = CARTESIAN_POINT('',(0.522030462598,0.803644415146,0.459591836735)
  );
#383 = CARTESIAN_POINT('',(0.566094073123,0.711249648102,0.422244897959)
  );
#384 = CARTESIAN_POINT('',(0.630365446063,0.630365446063,0.38));
#385 = CARTESIAN_POINT('',(0.711249648102,0.566094073123,0.337755102041)
  );
#386 = CARTESIAN_POINT('',(0.803644415146,0.522030462598,0.300408163265)
  );
#387 = CARTESIAN_POINT('',(0.901825679006,0.5,0.272857142857));
#388 = CARTESIAN_POINT('',(1.003831447206,0.5,0.25949822455));
#389 = CARTESIAN_POINT('',(1.008180909531,0.5,0.258928608607));
#390 = CARTESIAN_POINT('',(1.013048386975,0.5,0.25829115217));
#391 = CARTESIAN_POINT('',(1.018433879536,0.5,0.25758585524));
#392 = CARTESIAN_POINT('',(1.024337387217,0.5,0.256812717816));
#393 = CARTESIAN_POINT('',(1.030758910015,0.5,0.255971739899));
#394 = CARTESIAN_POINT('',(1.037698447932,0.5,0.255062921489));
#395 = CARTESIAN_POINT('',(1.045156000968,0.5,0.254086262585));
#396 = CARTESIAN_POINT('',(0.5,1.,0.5));
#397 = CARTESIAN_POINT('',(0.5,0.901825679006,0.5));
#398 = CARTESIAN_POINT('',(0.522030462598,0.803644415146,0.5));
#399 = CARTESIAN_POINT('',(0.566094073123,0.711249648102,0.5));
#400 = CARTESIAN_POINT('',(0.630365446063,0.630365446063,0.5));
#401 = CARTESIAN_POINT('',(0.711249648102,0.566094073123,0.5));
#402 = CARTESIAN_POINT('',(0.803644415146,0.522030462598,0.5));
#403 = CARTESIAN_POINT('',(0.901825679006,0.5,0.5));
#404 = CARTESIAN_POINT('',(1.003831447206,0.5,0.5));
#405 = CARTESIAN_POINT('',(1.008194680683,0.5,0.5));
#406 = CARTESIAN_POINT('',(1.013089700431,0.5,0.5));
#407 = CARTESIAN_POINT('',(1.018516506449,0.5,0.5));
#408 = CARTESIAN_POINT('',(1.024475098738,0.5,0.5));
#409 = CARTESIAN_POINT('',(1.030965477297,0.5,0.5));
#410 = CARTESIAN_POINT('',(1.037987642126,0.5,0.5));
#411 = CARTESIAN_POINT('',(1.045541593227,0.5,0.5));
#412 = CARTESIAN_POINT('',(0.5,1.,0.5));
#413 = CARTESIAN_POINT('',(0.487142857143,0.901825679006,0.5));
#414 = CARTESIAN_POINT('',(0.481620334222,0.797872339831,0.5));
#415 = CARTESIAN_POINT('',(0.490615176254,0.682407369272,0.5));
#416 = CARTESIAN_POINT('',(0.52665061506,0.556661118156,0.5));
#417 = CARTESIAN_POINT('',(0.60148486126,0.433296597423,0.5));
#418 = CARTESIAN_POINT('',(0.715169267348,0.333015081967,0.5));
#419 = CARTESIAN_POINT('',(0.854702004929,0.272857142857,0.5));
#420 = CARTESIAN_POINT('',(1.005670541865,0.25949822455,0.5));
#421 = CARTESIAN_POINT('',(1.011341083731,0.2589964491,0.5));
#422 = CARTESIAN_POINT('',(1.017011625596,0.25849467365,0.5));
#423 = CARTESIAN_POINT('',(1.022682167462,0.257992898201,0.5));
#424 = CARTESIAN_POINT('',(1.028352709327,0.257491122751,0.5));
#425 = CARTESIAN_POINT('',(1.034023251193,0.256989347301,0.5));
#426 = CARTESIAN_POINT('',(1.039693793058,0.256487571851,0.5));
#427 = CARTESIAN_POINT('',(1.045364334924,0.255985796401,0.5));
#428 = ADVANCED_FACE('',(#429),#448,.T.);
#429 = FACE_BOUND('',#430,.T.);
#430 = EDGE_LOOP('',(#431,#432,#433,#441,#447));
#431 = ORIENTED_EDGE('',*,*,#57,.T.);
#432 = ORIENTED_EDGE('',*,*,#359,.F.);
#433 = ORIENTED_EDGE('',*,*,#434,.F.);
#434 = EDGE_CURVE('',#435,#300,#437,.T.);
#435 = VERTEX_POINT('',#436);
#436 = CARTESIAN_POINT('',(0.,1.,0.5));
#437 = LINE('',#438,#439);
#438 = CARTESIAN_POINT('',(0.,1.,0.5));
#439 = VECTOR('',#440,1.);
#440 = DIRECTION('',(1.,0.,0.));
#441 = ORIENTED_EDGE('',*,*,#442,.F.);
#442 = EDGE_CURVE('',#335,#435,#443,.T.);
#443 = LINE('',#444,#445);
#444 = CARTESIAN_POINT('',(0.,0.,0.5));
#445 = VECTOR('',#446,1.);
#446 = DIRECTION('',(0.,1.,0.));
#447 = ORIENTED_EDGE('',*,*,#345,.T.);
#448 = PLANE('',#449);
#449 = AXIS2_PLACEMENT_3D('',#450,#451,#452);
#450 = CARTESIAN_POINT('',(0.43955898856,0.43955898856,0.5));
#451 = DIRECTION('',(0.,0.,1.));
#452 = DIRECTION('',(1.,0.,0.));
#453 = ADVANCED_FACE('',(#454),#467,.T.);
#454 = FACE_BOUND('',#455,.T.);
#455 = EDGE_LOOP('',(#456,#457,#458,#459,#465,#466));
#456 = ORIENTED_EDGE('',*,*,#273,.T.);
#457 = ORIENTED_EDGE('',*,*,#334,.F.);
#458 = ORIENTED_EDGE('',*,*,#442,.T.);
#459 = ORIENTED_EDGE('',*,*,#460,.F.);
#460 = EDGE_CURVE('',#146,#435,#461,.T.);
#461 = LINE('',#462,#463);
#462 = CARTESIAN_POINT('',(0.,1.,0.));
#463 = VECTOR('',#464,1.);
#464 = DIRECTION('',(0.,0.,1.));
#465 = ORIENTED_EDGE('',*,*,#153,.F.);
#466 = ORIENTED_EDGE('',*,*,#175,.T.);
#467 = PLANE('',#468);
#468 = AXIS2_PLACEMENT_3D('',#469,#470,#471);
#469 = CARTESIAN_POINT('',(0.,0.,0.));
#470 = DIRECTION('',(-1.,0.,0.));
#471 = DIRECTION('',(0.,1.,0.));
#472 = ADVANCED_FACE('',(#473),#479,.T.);
#473 = FACE_BOUND('',#474,.T.);
#474 = EDGE_LOOP('',(#475,#476,#477,#478));
#475 = ORIENTED_EDGE('',*,*,#460,.T.);
#476 = ORIENTED_EDGE('',*,*,#434,.T.);
#477 = ORIENTED_EDGE('',*,*,#299,.F.);
#478 = ORIENTED_EDGE('',*,*,#145,.F.);
#479 = PLANE('',#480);
#480 = AXIS2_PLACEMENT_3D('',#481,#482,#483);
#481 = CARTESIAN_POINT('',(0.,1.,0.));
#482 = DIRECTION('',(0.,1.,0.));
#483 = DIRECTION('',(1.,0.,0.));
#484 = ( GEOMETRIC_REPRESENTATION_CONTEXT(3) 
GLOBAL_UNCERTAINTY_ASSIGNED_CONTEXT((#488)) GLOBAL_UNIT_ASSIGNED_CONTEXT
((#485,#486,#487)) REPRESENTATION_CONTEXT('Context #1',
  '3D Context with UNIT and UNCERTAINTY') );
#485 = ( LENGTH_UNIT() NAMED_UNIT(*) SI_UNIT(.MILLI.,.METRE.) );
#486 = ( NAMED_UNIT(*) PLANE_ANGLE_UNIT() SI_UNIT($,.RADIAN.) );
#487 = ( NAMED_UNIT(*) SI_UNIT($,.STERADIAN.) SOLID_ANGLE_UNIT() );
#488 = UNCERTAINTY_MEASURE_WITH_UNIT(LENGTH_MEASURE(1.E-05),#485,
  'distance_accuracy_value','confusion accuracy');
#489 = PRODUCT_RELATED_PRODUCT_CATEGORY('detail',$,(#7));
#490 = PRODUCT_CATEGORY_RELATIONSHIP('','',#491,#489);
#491 = PRODUCT_CATEGORY('part',$);
#492 = CC_DESIGN_PERSON_AND_ORGANIZATION_ASSIGNMENT(#493,#496,(#6,#5));
#493 = PERSON_AND_ORGANIZATION(#494,#495);
#494 = PERSON('IP127.0.1,loq','','loq',$,$,$);
#495 = ORGANIZATION('IP127.0.1','Unspecified','');
#496 = PERSON_AND_ORGANIZATION_ROLE('creator');
#497 = CC_DESIGN_PERSON_AND_ORGANIZATION_ASSIGNMENT(#493,#498,(#7));
#498 = PERSON_AND_ORGANIZATION_ROLE('design_owner');
#499 = CC_DESIGN_PERSON_AND_ORGANIZATION_ASSIGNMENT(#493,#500,(#6));
#500 = PERSON_AND_ORGANIZATION_ROLE('design_supplier');
#501 = CC_DESIGN_PERSON_AND_ORGANIZATION_ASSIGNMENT(#493,#502,(#503));
#502 = PERSON_AND_ORGANIZATION_ROLE('classification_officer');
#503 = SECURITY_CLASSIFICATION('','',#504);
#504 = SECURITY_CLASSIFICATION_LEVEL('unclassified');
#505 = CC_DESIGN_SECURITY_CLASSIFICATION(#503,(#6));
#506 = CC_DESIGN_DATE_AND_TIME_ASSIGNMENT(#507,#511,(#5));
#507 = DATE_AND_TIME(#508,#509);
#508 = CALENDAR_DATE(2026,2,2);
#509 = LOCAL_TIME(14,12,$,#510);
#510 = COORDINATED_UNIVERSAL_TIME_OFFSET(1,$,.AHEAD.);
#511 = DATE_TIME_ROLE('creation_date');
#512 = CC_DESIGN_DATE_AND_TIME_ASSIGNMENT(#507,#513,(#503));
#513 = DATE_TIME_ROLE('classification_date');
#514 = CC_DESIGN_APPROVAL(#515,(#6,#5,#503));
#515 = APPROVAL(#516,'');
#516 = APPROVAL_STATUS('not_yet_approved');
#517 = APPROVAL_PERSON_ORGANIZATION(#493,#515,#518);
#518 = APPROVAL_ROLE('approver');
#519 = APPROVAL_DATE_TIME(#507,#515);
#520 = MECHANICAL_DESIGN_GEOMETRIC_PRESENTATION_REPRESENTATION('',(#521)
  ,#484);
#521 = STYLED_ITEM('color',(#522),#15);
#522 = PRESENTATION_STYLE_ASSIGNMENT((#523,#529));
#523 = SURFACE_STYLE_USAGE(.BOTH.,#524);
#524 = SURFACE_SIDE_STYLE('',(#525));
#525 = SURFACE_STYLE_FILL_AREA(#526);
#526 = FILL_AREA_STYLE('',(#527));
#527 = FILL_AREA_STYLE_COLOUR('',#528);
#528 = COLOUR_RGB('',0.447058818107,0.474509808674,0.501960817233);
#529 = CURVE_STYLE('',#530,POSITIVE_LENGTH_MEASURE(0.1),#531);
#530 = DRAUGHTING_PRE_DEFINED_CURVE_FONT('continuous');
#531 = COLOUR_RGB('',9.803921802644E-02,9.803921802644E-02,
  9.803921802644E-02);
ENDSEC;
END-ISO-10303-21;
