ISO-10303-21;
HEADER;
FILE_DESCRIPTION(('FreeCAD Model'),'2;1');
FILE_NAME('Open CASCADE Shape Model','2025-12-07T14:17:10',(''),(''),
  'Open CASCADE STEP processor 7.8','FreeCAD','Unknown');
FILE_SCHEMA(('AUTOMOTIVE_DESIGN { 1 0 10303 214 1 1 1 1 }'));
ENDSEC;
DATA;
#1 = APPLICATION_PROTOCOL_DEFINITION('international standard',
  'automotive_design',2000,#2);
#2 = APPLICATION_CONTEXT(
  'core data for automotive mechanical design processes');
#3 = SHAPE_DEFINITION_REPRESENTATION(#4,#10);
#4 = PRODUCT_DEFINITION_SHAPE('','',#5);
#5 = PRODUCT_DEFINITION('design','',#6,#9);
#6 = PRODUCT_DEFINITION_FORMATION('','',#7);
#7 = PRODUCT('Connect','Connect','',(#8));
#8 = PRODUCT_CONTEXT('',#2,'mechanical');
#9 = PRODUCT_DEFINITION_CONTEXT('part definition',#2,'design');
#10 = ADVANCED_BREP_SHAPE_REPRESENTATION('',(#11,#15),#605);
#11 = AXIS2_PLACEMENT_3D('',#12,#13,#14);
#12 = CARTESIAN_POINT('',(0.,0.,0.));
#13 = DIRECTION('',(0.,0.,1.));
#14 = DIRECTION('',(1.,0.,-0.));
#15 = MANIFOLD_SOLID_BREP('',#16);
#16 = CLOSED_SHELL('',(#17,#296,#322,#447,#473,#498,#507,#543,#552,#561,
    #587,#596));
#17 = ADVANCED_FACE('',(#18,#182),#291,.T.);
#18 = FACE_BOUND('',#19,.F.);
#19 = EDGE_LOOP('',(#20,#29,#37,#86,#135,#143,#150,#151,#181));
#20 = ORIENTED_EDGE('',*,*,#21,.F.);
#21 = EDGE_CURVE('',#22,#22,#24,.T.);
#22 = VERTEX_POINT('',#23);
#23 = CARTESIAN_POINT('',(15.,103.921272,-15.));
#24 = CIRCLE('',#25,15.);
#25 = AXIS2_PLACEMENT_3D('',#26,#27,#28);
#26 = CARTESIAN_POINT('',(0.,103.921272,-15.));
#27 = DIRECTION('',(0.,-0.,1.));
#28 = DIRECTION('',(1.,7.E-17,0.));
#29 = ORIENTED_EDGE('',*,*,#30,.T.);
#30 = EDGE_CURVE('',#22,#31,#33,.T.);
#31 = VERTEX_POINT('',#32);
#32 = CARTESIAN_POINT('',(15.,103.921272,19.631882682501));
#33 = LINE('',#34,#35);
#34 = CARTESIAN_POINT('',(15.,103.921272,-20.));
#35 = VECTOR('',#36,1.);
#36 = DIRECTION('',(0.,0.,1.));
#37 = ORIENTED_EDGE('',*,*,#38,.T.);
#38 = EDGE_CURVE('',#31,#39,#41,.T.);
#39 = VERTEX_POINT('',#40);
#40 = CARTESIAN_POINT('',(3.421719477972,118.52578622725,25.));
#41 = B_SPLINE_CURVE_WITH_KNOTS('',7,(#42,#43,#44,#45,#46,#47,#48,#49,
    #50,#51,#52,#53,#54,#55,#56,#57,#58,#59,#60,#61,#62,#63,#64,#65,#66,
    #67,#68,#69,#70,#71,#72,#73,#74,#75,#76,#77,#78,#79,#80,#81,#82,#83,
    #84,#85),.UNSPECIFIED.,.F.,.F.,(8,6,6,6,6,6,6,8),(0.,0.225273379092,
    0.355884940607,0.487636992924,0.552167442849,0.72304923376,
    0.874204854598,1.),.UNSPECIFIED.);
#42 = CARTESIAN_POINT('',(15.,103.921272,19.631882682501));
#43 = CARTESIAN_POINT('',(15.,104.38593219716,18.999422462803));
#44 = CARTESIAN_POINT('',(14.983206968349,104.91040133343,
    18.394485683517));
#45 = CARTESIAN_POINT('',(14.941840012165,105.49387289609,
    17.817385426765));
#46 = CARTESIAN_POINT('',(14.86667107515,106.13716408875,17.271655321108
    ));
#47 = CARTESIAN_POINT('',(14.746242885004,106.84067775363,16.76490576274
    ));
#48 = CARTESIAN_POINT('',(14.566265739526,107.60294010991,
    16.309385119813));
#49 = CARTESIAN_POINT('',(14.161370050666,108.89130772142,
    15.699795173997));
#50 = CARTESIAN_POINT('',(13.985742607845,109.38642241082,15.49741919178
    ));
#51 = CARTESIAN_POINT('',(13.780918833039,109.89711647386,
    15.323706070722));
#52 = CARTESIAN_POINT('',(13.545608208762,110.41663522102,
    15.184234073376));
#53 = CARTESIAN_POINT('',(13.279660672034,110.93837230845,
    15.083049896788));
#54 = CARTESIAN_POINT('',(12.984176491365,111.45608469159,
    15.022769690318));
#55 = CARTESIAN_POINT('',(12.335930975412,112.47658626534,
    14.986220730456));
#56 = CARTESIAN_POINT('',(11.988315914172,112.97035238016,
    15.011007269938));
#57 = CARTESIAN_POINT('',(11.622410588159,113.4406971799,15.077470539632
    ));
#58 = CARTESIAN_POINT('',(11.243114563689,113.88367979091,
    15.182802641284));
#59 = CARTESIAN_POINT('',(10.85628995012,114.29629019172,15.322869913784
    ));
#60 = CARTESIAN_POINT('',(10.468586909999,114.67646505989,15.49214528179
    ));
#61 = CARTESIAN_POINT('',(9.900459164994,115.19267816761,15.777304325661
    ));
#62 = CARTESIAN_POINT('',(9.714262329243,115.355167686,15.876836379319)
  );
#63 = CARTESIAN_POINT('',(9.528938881264,115.51067539016,15.981710942986
    ));
#64 = CARTESIAN_POINT('',(9.344754918275,115.65944333137,16.091524066619
    ));
#65 = CARTESIAN_POINT('',(9.161951460238,115.80171460209,16.205907205884
    ));
#66 = CARTESIAN_POINT('',(8.980744042877,115.93773283063,16.32452681423)
  );
#67 = CARTESIAN_POINT('',(8.326199218206,116.41201549238,16.771624989719
    ));
#68 = CARTESIAN_POINT('',(7.863009939057,116.71457496282,17.124179463531
    ));
#69 = CARTESIAN_POINT('',(7.414909026222,116.98006260354,17.499620091924
    ));
#70 = CARTESIAN_POINT('',(6.984090660665,117.21277726116,17.894516218224
    ));
#71 = CARTESIAN_POINT('',(6.572194225423,117.41651747651,18.306832339157
    ));
#72 = CARTESIAN_POINT('',(6.180786481048,117.594529676,18.735675502427)
  );
#73 = CARTESIAN_POINT('',(5.485635195827,117.88669625134,19.575089885786
    ));
#74 = CARTESIAN_POINT('',(5.176984598293,118.00585080002,19.982058443941
    ));
#75 = CARTESIAN_POINT('',(4.888103136528,118.1086253812,20.401172362022)
  );
#76 = CARTESIAN_POINT('',(4.62134832991,118.19647562866,20.831806028597)
  );
#77 = CARTESIAN_POINT('',(4.379326238648,118.27076574138,21.273529898007
    ));
#78 = CARTESIAN_POINT('',(4.16489248643,118.33272573387,21.726097926496)
  );
#79 = CARTESIAN_POINT('',(3.828196293022,118.4254118857,22.575017493351)
  );
#80 = CARTESIAN_POINT('',(3.696294354876,118.45969239669,22.968594840056
    ));
#81 = CARTESIAN_POINT('',(3.588026763407,118.48646617976,23.36831334474)
  );
#82 = CARTESIAN_POINT('',(3.505364166216,118.50618914329,23.772607133536
    ));
#83 = CARTESIAN_POINT('',(3.449669622137,118.51923765136,24.18012022051)
  );
#84 = CARTESIAN_POINT('',(3.421719477972,118.52578622725,24.589635314158
    ));
#85 = CARTESIAN_POINT('',(3.421719477972,118.52578622725,25.));
#86 = ORIENTED_EDGE('',*,*,#87,.T.);
#87 = EDGE_CURVE('',#39,#88,#90,.T.);
#88 = VERTEX_POINT('',#89);
#89 = CARTESIAN_POINT('',(15.,103.921272,30.3681173175));
#90 = B_SPLINE_CURVE_WITH_KNOTS('',7,(#91,#92,#93,#94,#95,#96,#97,#98,
    #99,#100,#101,#102,#103,#104,#105,#106,#107,#108,#109,#110,#111,#112
    ,#113,#114,#115,#116,#117,#118,#119,#120,#121,#122,#123,#124,#125,
    #126,#127,#128,#129,#130,#131,#132,#133,#134),.UNSPECIFIED.,.F.,.F.,
  (8,6,6,6,6,6,6,8),(0.,0.129978703951,0.281070477685,0.450867960864,
    0.565081605195,0.699411546155,0.777841339877,1.),.UNSPECIFIED.);
#91 = CARTESIAN_POINT('',(3.421719477972,118.52578622725,25.));
#92 = CARTESIAN_POINT('',(3.421719477972,118.52578622725,25.42371610697)
  );
#93 = CARTESIAN_POINT('',(3.451517862986,118.51880459773,25.846432110455
    ));
#94 = CARTESIAN_POINT('',(3.510864651974,118.50490048432,26.266923782862
    ));
#95 = CARTESIAN_POINT('',(3.598879247583,118.4838749175,26.68389248322)
  );
#96 = CARTESIAN_POINT('',(3.714033376066,118.45529769721,27.095881681193
    ));
#97 = CARTESIAN_POINT('',(3.854128614826,118.41865149484,27.501197649428
    ));
#98 = CARTESIAN_POINT('',(4.204745567613,118.32121580898,28.358898613263
    ));
#99 = CARTESIAN_POINT('',(4.423378852477,118.25736918731,28.809136674926
    ));
#100 = CARTESIAN_POINT('',(4.669111148875,118.18107539882,29.24847612473
    ));
#101 = CARTESIAN_POINT('',(4.939130998656,118.09109287376,
    29.676685522716));
#102 = CARTESIAN_POINT('',(5.230890569608,117.98604747373,30.09335300139
    ));
#103 = CARTESIAN_POINT('',(5.542102711433,117.86446455368,
    30.497872178177));
#104 = CARTESIAN_POINT('',(6.240015347216,117.56763632224,
    31.329475467397));
#105 = CARTESIAN_POINT('',(6.6312489929,117.38762969128,31.753101044986)
  );
#106 = CARTESIAN_POINT('',(7.04247343172,117.18194562314,32.160326827118
    ));
#107 = CARTESIAN_POINT('',(7.472183502472,116.94735577602,
    32.550218462148));
#108 = CARTESIAN_POINT('',(7.918768476423,116.68009252371,
    32.920701192924));
#109 = CARTESIAN_POINT('',(8.380045037137,116.37590579072,
    33.268318840451));
#110 = CARTESIAN_POINT('',(9.17091118726,115.79770267077,33.802937138938
    ));
#111 = CARTESIAN_POINT('',(9.495048193201,115.54577097561,
    34.005853135984));
#112 = CARTESIAN_POINT('',(9.823754313184,115.2733061057,34.194587450477
    ));
#113 = CARTESIAN_POINT('',(10.155326259586,114.97923022399,
    34.366867564467));
#114 = CARTESIAN_POINT('',(10.487869688272,114.66254682524,
    34.520228436524));
#115 = CARTESIAN_POINT('',(10.81929538925,114.32238648774,
    34.651980261503));
#116 = CARTESIAN_POINT('',(11.533128918508,113.52956987447,
    34.885233743454));
#117 = CARTESIAN_POINT('',(11.915597192362,113.06613958035,
    34.977765699434));
#118 = CARTESIAN_POINT('',(12.284885654078,112.57297445903,35.0295317918
    ));
#119 = CARTESIAN_POINT('',(12.632943828896,112.05673455939,
    35.036454014885));
#120 = CARTESIAN_POINT('',(12.953833022077,111.52555069779,
    34.997426461227));
#121 = CARTESIAN_POINT('',(13.243843541399,110.98880915975,
    34.914327840098));
#122 = CARTESIAN_POINT('',(13.651793451638,110.14603449384,
    34.720939033407));
#123 = CARTESIAN_POINT('',(13.79089348019,109.83740431323,
    34.636460246478));
#124 = CARTESIAN_POINT('',(13.918952801808,109.5318134507,
    34.539636985717));
#125 = CARTESIAN_POINT('',(14.036299572875,109.23024930252,
    34.431380763399));
#126 = CARTESIAN_POINT('',(14.143338164203,108.93368261202,
    34.312676363549));
#127 = CARTESIAN_POINT('',(14.240539390185,108.64306020969,
    34.184588841702));
#128 = CARTESIAN_POINT('',(14.577390006241,107.55551791286,
    33.662137994826));
#129 = CARTESIAN_POINT('',(14.752450804985,106.80419292835,
    33.208725369388));
#130 = CARTESIAN_POINT('',(14.86977338678,106.11046612069,
    32.705642222002));
#131 = CARTESIAN_POINT('',(14.943121823909,105.47570363783,
    32.164616395339));
#132 = CARTESIAN_POINT('',(14.983554458904,104.89950514975,
    31.592937186112));
#133 = CARTESIAN_POINT('',(15.,104.38109985732,30.994000122704));
#134 = CARTESIAN_POINT('',(15.,103.921272,30.368117317499));
#135 = ORIENTED_EDGE('',*,*,#136,.T.);
#136 = EDGE_CURVE('',#88,#137,#139,.T.);
#137 = VERTEX_POINT('',#138);
#138 = CARTESIAN_POINT('',(15.,103.921272,40.));
#139 = LINE('',#140,#141);
#140 = CARTESIAN_POINT('',(15.,103.921272,-20.));
#141 = VECTOR('',#142,1.);
#142 = DIRECTION('',(0.,0.,1.));
#143 = ORIENTED_EDGE('',*,*,#144,.T.);
#144 = EDGE_CURVE('',#137,#137,#145,.T.);
#145 = CIRCLE('',#146,15.);
#146 = AXIS2_PLACEMENT_3D('',#147,#148,#149);
#147 = CARTESIAN_POINT('',(0.,103.921272,40.));
#148 = DIRECTION('',(-0.,0.,1.));
#149 = DIRECTION('',(1.,-7.E-17,0.));
#150 = ORIENTED_EDGE('',*,*,#136,.F.);
#151 = ORIENTED_EDGE('',*,*,#152,.T.);
#152 = EDGE_CURVE('',#88,#31,#153,.T.);
#153 = B_SPLINE_CURVE_WITH_KNOTS('',6,(#154,#155,#156,#157,#158,#159,
    #160,#161,#162,#163,#164,#165,#166,#167,#168,#169,#170,#171,#172,
    #173,#174,#175,#176,#177,#178,#179,#180),.UNSPECIFIED.,.F.,.F.,(7,5,
    5,5,5,7),(0.,0.256801334788,0.500029198774,0.744326621563,
    0.927128304453,1.),.UNSPECIFIED.);
#154 = CARTESIAN_POINT('',(15.,103.921272,30.368117317499));
#155 = CARTESIAN_POINT('',(15.,103.61478650605,29.95095250756));
#156 = CARTESIAN_POINT('',(14.992485356417,103.33539074204,
    29.521914792371));
#157 = CARTESIAN_POINT('',(14.979946676597,103.08417360821,
    29.082432722314));
#158 = CARTESIAN_POINT('',(14.964658205059,102.86222540895,
    28.633645129821));
#159 = CARTESIAN_POINT('',(14.948638981491,102.67066946671,
    28.176443841389));
#160 = CARTESIAN_POINT('',(14.919220090364,102.35921270116,
    27.271173224371));
#161 = CARTESIAN_POINT('',(14.90572565481,102.23604803437,
    26.823864171878));
#162 = CARTESIAN_POINT('',(14.894483794357,102.14269986973,
    26.371479511229));
#163 = CARTESIAN_POINT('',(14.886607638956,102.08010093804,
    25.915688012514));
#164 = CARTESIAN_POINT('',(14.882663704412,102.04875469397,
    25.458028428694));
#165 = CARTESIAN_POINT('',(14.882663704412,102.04875469397,
    24.539957458573));
#166 = CARTESIAN_POINT('',(14.886642400185,102.08037722113,
    24.080291565816));
#167 = CARTESIAN_POINT('',(14.894587779475,102.14352632782,
    23.622518513855));
#168 = CARTESIAN_POINT('',(14.905923358819,102.2376901764,
    23.168194935949));
#169 = CARTESIAN_POINT('',(14.919516685759,102.36192118321,
    22.719010133096));
#170 = CARTESIAN_POINT('',(14.944676063465,102.62904713138,
    21.946034384568));
#171 = CARTESIAN_POINT('',(14.955895779584,102.7594208275,
    21.618999285433));
#172 = CARTESIAN_POINT('',(14.966971495105,102.90540402001,
    21.296077067538));
#173 = CARTESIAN_POINT('',(14.977209622335,103.06656222521,
    20.97763411963));
#174 = CARTESIAN_POINT('',(14.985840134084,103.2424523161,
    20.664095835132));
#175 = CARTESIAN_POINT('',(14.994509265926,103.50842262469,
    20.233108115547));
#176 = CARTESIAN_POINT('',(14.996593988963,103.58651012685,
    20.111104687867));
#177 = CARTESIAN_POINT('',(14.998240324349,103.66685698707,
    19.989958576572));
#178 = CARTESIAN_POINT('',(14.999394256459,103.74944388068,
    19.869691411702));
#179 = CARTESIAN_POINT('',(15.,103.83425378912,19.750325271517));
#180 = CARTESIAN_POINT('',(15.,103.921272,19.631882682501));
#181 = ORIENTED_EDGE('',*,*,#30,.F.);
#182 = FACE_BOUND('',#183,.F.);
#183 = EDGE_LOOP('',(#184));
#184 = ORIENTED_EDGE('',*,*,#185,.T.);
#185 = EDGE_CURVE('',#186,#186,#188,.T.);
#186 = VERTEX_POINT('',#187);
#187 = CARTESIAN_POINT('',(10.,92.740932112501,0.));
#188 = B_SPLINE_CURVE_WITH_KNOTS('',6,(#189,#190,#191,#192,#193,#194,
    #195,#196,#197,#198,#199,#200,#201,#202,#203,#204,#205,#206,#207,
    #208,#209,#210,#211,#212,#213,#214,#215,#216,#217,#218,#219,#220,
    #221,#222,#223,#224,#225,#226,#227,#228,#229,#230,#231,#232,#233,
    #234,#235,#236,#237,#238,#239,#240,#241,#242,#243,#244,#245,#246,
    #247,#248,#249,#250,#251,#252,#253,#254,#255,#256,#257,#258,#259,
    #260,#261,#262,#263,#264,#265,#266,#267,#268,#269,#270,#271,#272,
    #273,#274,#275,#276,#277,#278,#279,#280,#281,#282,#283,#284,#285,
    #286,#287,#288,#289,#290),.UNSPECIFIED.,.T.,.F.,(7,5,5,5,5,5,5,5,5,5
    ,5,5,5,5,5,5,5,5,5,5,7),(0.,5.019652032735E-02,0.105165262082,
    0.155413896171,0.197766470027,0.250102893767,0.302399302301,
    0.346564362109,0.394952947067,0.450211384363,0.5002205538,
    0.550423035178,0.60539830469,0.673357627453,0.718362321212,
    0.772286522925,0.802837621726,0.846855583206,0.895083002754,
    0.950157393572,1.),.UNSPECIFIED.);
#189 = CARTESIAN_POINT('',(10.,92.740932112501,-2.204E-14));
#190 = CARTESIAN_POINT('',(10.,92.740932112501,0.474453742577));
#191 = CARTESIAN_POINT('',(9.97298748513,92.716771432076,0.948212297494)
  );
#192 = CARTESIAN_POINT('',(9.919109225195,92.668581035596,1.419465785839
    ));
#193 = CARTESIAN_POINT('',(9.838658390047,92.597505163127,1.886325341423
    ));
#194 = CARTESIAN_POINT('',(9.732119186532,92.505705339964,2.346667269716
    ));
#195 = CARTESIAN_POINT('',(9.456549173511,92.276151951931,3.292215951769
    ));
#196 = CARTESIAN_POINT('',(9.282449857408,92.1347840696,3.775936910591)
  );
#197 = CARTESIAN_POINT('',(9.078847266155,91.975191225878,4.248622655703
    ));
#198 = CARTESIAN_POINT('',(8.845873744713,91.800742341781,4.709463617829
    ));
#199 = CARTESIAN_POINT('',(8.583428054585,91.614861904017,5.157322958359
    ));
#200 = CARTESIAN_POINT('',(8.024066823112,91.243846910436,5.98687411671)
  );
#201 = CARTESIAN_POINT('',(7.731905654866,91.059925506306,6.371153696996
    ));
#202 = CARTESIAN_POINT('',(7.413885717284,90.871553678498,6.74318842664)
  );
#203 = CARTESIAN_POINT('',(7.068751765264,90.681018956781,7.102100706989
    ));
#204 = CARTESIAN_POINT('',(6.694980617265,90.490884377896,7.446300220307
    ));
#205 = CARTESIAN_POINT('',(5.950418128075,90.146903021948,8.048878430578
    ));
#206 = CARTESIAN_POINT('',(5.588099436834,89.991915600259,8.312477066402
    ));
#207 = CARTESIAN_POINT('',(5.202961073646,89.841115968512,8.562537145273
    ));
#208 = CARTESIAN_POINT('',(4.793987863869,89.696665998944,8.796974845026
    ));
#209 = CARTESIAN_POINT('',(4.360310386894,89.561131672194,9.013110723516
    ));
#210 = CARTESIAN_POINT('',(3.334177509444,89.284733014249,9.447893134729
    ));
#211 = CARTESIAN_POINT('',(2.721954072064,89.148409095656,9.657848743586
    ));
#212 = CARTESIAN_POINT('',(2.072828978416,89.037893058179,9.825064883756
    ));
#213 = CARTESIAN_POINT('',(1.395990491141,88.96065012602,9.940933724695)
  );
#214 = CARTESIAN_POINT('',(0.701585857511,88.921272,10.));
#215 = CARTESIAN_POINT('',(-0.701049441369,88.921272,10.));
#216 = CARTESIAN_POINT('',(-1.395011717191,88.960589920189,
    9.941023996971));
#217 = CARTESIAN_POINT('',(-2.07147533204,89.037733458701,9.825304395017
    ));
#218 = CARTESIAN_POINT('',(-2.720266959483,89.148121635319,
    9.658284172479));
#219 = CARTESIAN_POINT('',(-3.332175235634,89.284291230782,
    9.448572783417));
#220 = CARTESIAN_POINT('',(-4.37773126312,89.565742137673,9.005871192862
    ));
#221 = CARTESIAN_POINT('',(-4.828911550451,89.707555733164,
    8.779619099109));
#222 = CARTESIAN_POINT('',(-5.253245673289,89.858928316558,
    8.533622673847));
#223 = CARTESIAN_POINT('',(-5.651748099682,90.016975226795,
    8.270881301964));
#224 = CARTESIAN_POINT('',(-6.025596219449,90.179291363914,7.99368848172
    ));
#225 = CARTESIAN_POINT('',(-6.759869215872,90.524106666997,
    7.385965786961));
#226 = CARTESIAN_POINT('',(-7.115935564305,90.707213575868,
    7.052585734023));
#227 = CARTESIAN_POINT('',(-7.4456087677,90.890450720213,6.705702480968)
  );
#228 = CARTESIAN_POINT('',(-7.750221430809,91.071546619735,
    6.346697747724));
#229 = CARTESIAN_POINT('',(-8.030875380169,91.248449132931,
    5.976348863188));
#230 = CARTESIAN_POINT('',(-8.582290971824,91.614010266742,
    5.159492862268));
#231 = CARTESIAN_POINT('',(-8.846182921179,91.800898795913,
    4.709354779115));
#232 = CARTESIAN_POINT('',(-9.080297794066,91.976242139875,
    4.246099905585));
#233 = CARTESIAN_POINT('',(-9.284737521053,92.136561546175,
    3.770884876113));
#234 = CARTESIAN_POINT('',(-9.45936675226,92.27843548992,3.284532269005)
  );
#235 = CARTESIAN_POINT('',(-9.734159536075,92.507463766789,2.33783066808
    ));
#236 = CARTESIAN_POINT('',(-9.839890814313,92.59859397525,1.879159196064
    ));
#237 = CARTESIAN_POINT('',(-9.919728921184,92.669135313482,
    1.414038670648));
#238 = CARTESIAN_POINT('',(-9.973195110752,92.716957136712,
    0.944570879016));
#239 = CARTESIAN_POINT('',(-10.,92.740932112501,0.472626789576));
#240 = CARTESIAN_POINT('',(-10.,92.740932112501,-0.474453742578));
#241 = CARTESIAN_POINT('',(-9.97298748513,92.716771432076,
    -0.948212297493));
#242 = CARTESIAN_POINT('',(-9.919109225195,92.668581035596,
    -1.41946578584));
#243 = CARTESIAN_POINT('',(-9.838658390047,92.597505163127,
    -1.886325341422));
#244 = CARTESIAN_POINT('',(-9.732119186532,92.505705339964,
    -2.346667269716));
#245 = CARTESIAN_POINT('',(-9.45654917355,92.276151951964,
    -3.292215951635));
#246 = CARTESIAN_POINT('',(-9.282449857415,92.134784069604,
    -3.775936910627));
#247 = CARTESIAN_POINT('',(-9.078847266097,91.975191225829,
    -4.248622655833));
#248 = CARTESIAN_POINT('',(-8.845873744668,91.800742341758,
    -4.709463617862));
#249 = CARTESIAN_POINT('',(-8.58342805467,91.614861904074,
    -5.157322958233));
#250 = CARTESIAN_POINT('',(-7.929955381889,91.181424358073,
    -6.12644448857));
#251 = CARTESIAN_POINT('',(-7.523248868096,90.929701118897,
    -6.639986883791));
#252 = CARTESIAN_POINT('',(-7.068880392448,90.671364564637,
    -7.130953354682));
#253 = CARTESIAN_POINT('',(-6.563114830582,90.411869305817,
    -7.59694879696));
#254 = CARTESIAN_POINT('',(-6.001512404014,90.158089261196,
    -8.03277845438));
#255 = CARTESIAN_POINT('',(-4.968362582215,89.76112356181,
    -8.692169097199));
#256 = CARTESIAN_POINT('',(-4.529161667164,89.609033090513,
    -8.938539110834));
#257 = CARTESIAN_POINT('',(-4.062094577728,89.466241261213,
    -9.164979735695));
#258 = CARTESIAN_POINT('',(-3.567179803921,89.33629568737,
    -9.367577224365));
#259 = CARTESIAN_POINT('',(-3.044839138961,89.223016039447,
    -9.542020881868));
#260 = CARTESIAN_POINT('',(-1.838442615855,89.019431219767,
    -9.852983015913));
#261 = CARTESIAN_POINT('',(-1.140202447478,88.937680868725,
    -9.975816710483));
#262 = CARTESIAN_POINT('',(-0.417799329866,88.895086856908,
    -10.03897755273));
#263 = CARTESIAN_POINT('',(0.311311660097,88.8965223331,-10.03707240059)
  );
#264 = CARTESIAN_POINT('',(1.029341793001,88.940523603004,
    -9.971508675075));
#265 = CARTESIAN_POINT('',(2.110186107522,89.065231218177,
    -9.782871144596));
#266 = CARTESIAN_POINT('',(2.491518111132,89.12169795625,-9.697137862759
    ));
#267 = CARTESIAN_POINT('',(2.86209642615,89.188419023255,-9.595264069684
    ));
#268 = CARTESIAN_POINT('',(3.22083806053,89.264128948688,-9.478749521871
    ));
#269 = CARTESIAN_POINT('',(3.56676832202,89.347440823131,-9.349243116));
#270 = CARTESIAN_POINT('',(4.37773126312,89.565742137673,-9.005871192862
    ));
#271 = CARTESIAN_POINT('',(4.828911550451,89.707555733164,
    -8.779619099109));
#272 = CARTESIAN_POINT('',(5.253245673289,89.858928316558,
    -8.533622673846));
#273 = CARTESIAN_POINT('',(5.651748099682,90.016975226795,
    -8.270881301963));
#274 = CARTESIAN_POINT('',(6.025596219449,90.179291363914,-7.99368848172
    ));
#275 = CARTESIAN_POINT('',(6.759869215871,90.524106666997,
    -7.385965786962));
#276 = CARTESIAN_POINT('',(7.115935564305,90.707213575868,
    -7.052585734023));
#277 = CARTESIAN_POINT('',(7.4456087677,90.890450720213,-6.705702480968)
  );
#278 = CARTESIAN_POINT('',(7.750221430809,91.071546619736,
    -6.346697747724));
#279 = CARTESIAN_POINT('',(8.030875380169,91.248449132931,
    -5.976348863189));
#280 = CARTESIAN_POINT('',(8.582290971824,91.614010266742,
    -5.159492862268));
#281 = CARTESIAN_POINT('',(8.846182921178,91.800898795913,
    -4.709354779116));
#282 = CARTESIAN_POINT('',(9.080297794066,91.976242139875,
    -4.246099905584));
#283 = CARTESIAN_POINT('',(9.284737521053,92.136561546175,
    -3.770884876114));
#284 = CARTESIAN_POINT('',(9.45936675226,92.27843548992,-3.284532269005)
  );
#285 = CARTESIAN_POINT('',(9.734159536076,92.507463766789,-2.33783066808
    ));
#286 = CARTESIAN_POINT('',(9.839890814312,92.59859397525,-1.879159196065
    ));
#287 = CARTESIAN_POINT('',(9.919728921185,92.669135313482,
    -1.414038670646));
#288 = CARTESIAN_POINT('',(9.973195110752,92.716957136712,
    -0.944570879017));
#289 = CARTESIAN_POINT('',(10.,92.740932112501,-0.472626789576));
#290 = CARTESIAN_POINT('',(10.,92.740932112501,-2.204E-14));
#291 = CYLINDRICAL_SURFACE('',#292,15.);
#292 = AXIS2_PLACEMENT_3D('',#293,#294,#295);
#293 = CARTESIAN_POINT('',(0.,103.921272,-20.));
#294 = DIRECTION('',(0.,0.,-1.));
#295 = DIRECTION('',(1.,0.,0.));
#296 = ADVANCED_FACE('',(#297),#317,.T.);
#297 = FACE_BOUND('',#298,.F.);
#298 = EDGE_LOOP('',(#299,#308,#309,#310));
#299 = ORIENTED_EDGE('',*,*,#300,.F.);
#300 = EDGE_CURVE('',#22,#301,#303,.T.);
#301 = VERTEX_POINT('',#302);
#302 = CARTESIAN_POINT('',(10.,103.921272,-20.));
#303 = CIRCLE('',#304,5.);
#304 = AXIS2_PLACEMENT_3D('',#305,#306,#307);
#305 = CARTESIAN_POINT('',(10.,103.921272,-15.));
#306 = DIRECTION('',(-7.E-17,1.,0.));
#307 = DIRECTION('',(1.,7.E-17,0.));
#308 = ORIENTED_EDGE('',*,*,#21,.F.);
#309 = ORIENTED_EDGE('',*,*,#300,.T.);
#310 = ORIENTED_EDGE('',*,*,#311,.T.);
#311 = EDGE_CURVE('',#301,#301,#312,.T.);
#312 = CIRCLE('',#313,10.);
#313 = AXIS2_PLACEMENT_3D('',#314,#315,#316);
#314 = CARTESIAN_POINT('',(0.,103.921272,-20.));
#315 = DIRECTION('',(0.,-0.,1.));
#316 = DIRECTION('',(1.,7.E-17,0.));
#317 = TOROIDAL_SURFACE('',#318,10.,5.);
#318 = AXIS2_PLACEMENT_3D('',#319,#320,#321);
#319 = CARTESIAN_POINT('',(0.,103.921272,-15.));
#320 = DIRECTION('',(0.,0.,-1.));
#321 = DIRECTION('',(1.,7.E-17,0.));
#322 = ADVANCED_FACE('',(#323),#442,.T.);
#323 = FACE_BOUND('',#324,.F.);
#324 = EDGE_LOOP('',(#325,#326,#334,#439,#440,#441));
#325 = ORIENTED_EDGE('',*,*,#87,.F.);
#326 = ORIENTED_EDGE('',*,*,#327,.T.);
#327 = EDGE_CURVE('',#39,#328,#330,.T.);
#328 = VERTEX_POINT('',#329);
#329 = CARTESIAN_POINT('',(72.07771329995,158.16434274185,25.));
#330 = LINE('',#331,#332);
#331 = CARTESIAN_POINT('',(-4.842368712976,113.7545126856,25.));
#332 = VECTOR('',#333,1.);
#333 = DIRECTION('',(0.866025403784,0.5,0.));
#334 = ORIENTED_EDGE('',*,*,#335,.T.);
#335 = EDGE_CURVE('',#328,#328,#336,.T.);
#336 = B_SPLINE_CURVE_WITH_KNOTS('',6,(#337,#338,#339,#340,#341,#342,
    #343,#344,#345,#346,#347,#348,#349,#350,#351,#352,#353,#354,#355,
    #356,#357,#358,#359,#360,#361,#362,#363,#364,#365,#366,#367,#368,
    #369,#370,#371,#372,#373,#374,#375,#376,#377,#378,#379,#380,#381,
    #382,#383,#384,#385,#386,#387,#388,#389,#390,#391,#392,#393,#394,
    #395,#396,#397,#398,#399,#400,#401,#402,#403,#404,#405,#406,#407,
    #408,#409,#410,#411,#412,#413,#414,#415,#416,#417,#418,#419,#420,
    #421,#422,#423,#424,#425,#426,#427,#428,#429,#430,#431,#432,#433,
    #434,#435,#436,#437,#438),.UNSPECIFIED.,.T.,.F.,(7,5,5,5,5,5,5,5,5,5
    ,5,5,5,5,5,5,5,5,5,5,7),(0.,5.113292423773E-02,0.105185611664,
    0.154278275446,0.19734886909,0.25012235691,0.302676470563,
    0.346537684916,0.395025108499,0.449342882548,0.500220485153,
    0.533973719325,0.551320958278,0.605300075275,0.673564209233,
    0.728401488194,0.782110505063,0.827877291554,0.894975010435,
    0.949204804876,1.),.UNSPECIFIED.);
#337 = CARTESIAN_POINT('',(72.07771329995,158.16434274185,25.));
#338 = CARTESIAN_POINT('',(72.07771329995,158.16434274185,
    25.483229890107));
#339 = CARTESIAN_POINT('',(72.070018859441,158.12754443102,
    25.965703744795));
#340 = CARTESIAN_POINT('',(72.054674293797,158.05416104129,
    26.445532209933));
#341 = CARTESIAN_POINT('',(72.032587203478,157.9450764612,
    26.920738691296));
#342 = CARTESIAN_POINT('',(72.005506484485,157.80189038065,
    27.38909173012));
#343 = CARTESIAN_POINT('',(71.943938948944,157.44252445768,
    28.333009201629));
#344 = CARTESIAN_POINT('',(71.909092549666,157.22249732484,
    28.807843340072));
#345 = CARTESIAN_POINT('',(71.873390924812,156.96906659301,
    29.27195027139));
#346 = CARTESIAN_POINT('',(71.839547234783,156.68393314885,
    29.724566073148));
#347 = CARTESIAN_POINT('',(71.810427673431,156.36862710548,
    30.16462037107));
#348 = CARTESIAN_POINT('',(71.769626837668,155.71200705673,
    30.977692057214));
#349 = CARTESIAN_POINT('',(71.756581349262,155.37557999439,
    31.353346825255));
#350 = CARTESIAN_POINT('',(71.752141179782,155.01564698198,
    31.717326256872));
#351 = CARTESIAN_POINT('',(71.758738345727,154.63227624502,
    32.068818154274));
#352 = CARTESIAN_POINT('',(71.779130050957,154.22544345646,
    32.406366428395));
#353 = CARTESIAN_POINT('',(71.849329533956,153.41786429018,
    33.009608465797));
#354 = CARTESIAN_POINT('',(71.895247487935,153.02219635001,
    33.279258525429));
#355 = CARTESIAN_POINT('',(71.956482318457,152.60826329288,
    33.535095483412));
#356 = CARTESIAN_POINT('',(72.035517075055,152.1762389072,
    33.774983077603));
#357 = CARTESIAN_POINT('',(72.135136446917,151.7266419813,
    33.996144547934));
#358 = CARTESIAN_POINT('',(72.409375530001,150.68929551692,
    34.438799417633));
#359 = CARTESIAN_POINT('',(72.597645352703,150.08639223483,
    34.652065508273));
#360 = CARTESIAN_POINT('',(72.827372094202,149.46381433333,
    34.822067181886));
#361 = CARTESIAN_POINT('',(73.100525827909,148.83356792224,
    34.939919418677));
#362 = CARTESIAN_POINT('',(73.415998544268,148.20704447867,35.));
#363 = CARTESIAN_POINT('',(74.122111994532,146.9840201069,35.));
#364 = CARTESIAN_POINT('',(74.505205532903,146.399926685,34.940417883008
    ));
#365 = CARTESIAN_POINT('',(74.912485040429,145.85031441438,
    34.82355098319));
#366 = CARTESIAN_POINT('',(75.334777325633,145.34174225131,
    34.654938979188));
#367 = CARTESIAN_POINT('',(75.760874011381,144.87845999938,
    34.443321271348));
#368 = CARTESIAN_POINT('',(76.526930133758,144.11598321572,
    33.999254281824));
#369 = CARTESIAN_POINT('',(76.872842003644,143.79897618786,
    33.774091655143));
#370 = CARTESIAN_POINT('',(77.213640647389,143.50958256093,
    33.529506443275));
#371 = CARTESIAN_POINT('',(77.547383439082,143.24552650676,
    33.268428880966));
#372 = CARTESIAN_POINT('',(77.872611540509,143.00462891268,
    32.993100404163));
#373 = CARTESIAN_POINT('',(78.537024309676,142.54194579414,
    32.386791372763));
#374 = CARTESIAN_POINT('',(78.874370044177,142.32464269154,
    32.05272432614));
#375 = CARTESIAN_POINT('',(79.198577571167,142.13036058707,
    31.705096172197));
#376 = CARTESIAN_POINT('',(79.508337711202,141.95679526175,
    31.345297595443));
#377 = CARTESIAN_POINT('',(79.802416397129,141.80195453994,
    30.974109946683));
#378 = CARTESIAN_POINT('',(80.38969638504,141.50981343126,
    30.163667998227));
#379 = CARTESIAN_POINT('',(80.678720456553,141.37677083197,
    29.72134707388));
#380 = CARTESIAN_POINT('',(80.943727473215,141.26309360832,
    29.266340189522));
#381 = CARTESIAN_POINT('',(81.18191431043,141.16704003701,28.79973672768
    ));
#382 = CARTESIAN_POINT('',(81.390406838363,141.08708989001,
    28.322313550541));
#383 = CARTESIAN_POINT('',(81.731042579499,140.96136439238,
    27.377736615059));
#384 = CARTESIAN_POINT('',(81.867300458114,140.91370264921,
    26.911526208739));
#385 = CARTESIAN_POINT('',(81.971807788267,140.87863335478,
    26.438553153047));
#386 = CARTESIAN_POINT('',(82.042344387685,140.85545635852,
    25.961019896717));
#387 = CARTESIAN_POINT('',(82.07771329995,140.84383466616,
    25.480879492959));
#388 = CARTESIAN_POINT('',(82.07771329995,140.84383466616,
    24.680974784508));
#389 = CARTESIAN_POINT('',(82.062146349089,140.84894971578,
    24.362056925746));
#390 = CARTESIAN_POINT('',(82.031031974702,140.85917338679,
    24.043903145396));
#391 = CARTESIAN_POINT('',(81.984617208474,140.87456585151,
    23.727179420478));
#392 = CARTESIAN_POINT('',(81.923379952114,140.89525145812,
    23.412589280604));
#393 = CARTESIAN_POINT('',(81.80930778277,140.93478738182,
    22.940712022689));
#394 = CARTESIAN_POINT('',(81.766849484642,140.94964509773,
    22.781261054596));
#395 = CARTESIAN_POINT('',(81.720740061857,140.96596247512,
    22.622606142883));
#396 = CARTESIAN_POINT('',(81.671070905047,140.98376675555,
    22.464808568376));
#397 = CARTESIAN_POINT('',(81.61794198085,141.00308767526,
    22.307933549159));
#398 = CARTESIAN_POINT('',(81.385713153482,141.08889182188,
    21.666990798482));
#399 = CARTESIAN_POINT('',(81.177740867247,141.16872752131,
    21.192156659897));
#400 = CARTESIAN_POINT('',(80.940412602891,141.26452437317,
    20.728049728504));
#401 = CARTESIAN_POINT('',(80.676557951789,141.37778159993,
    20.275433926824));
#402 = CARTESIAN_POINT('',(80.388935127693,141.51021634168,
    19.835379629034));
#403 = CARTESIAN_POINT('',(79.68986788418,141.85791098389,
    18.870450125919));
#404 = CARTESIAN_POINT('',(79.265883026538,142.08577224921,
    18.354064511177));
#405 = CARTESIAN_POINT('',(78.811999596284,142.35208060572,
    17.860493934981));
#406 = CARTESIAN_POINT('',(78.33111860065,142.66291555748,
    17.392204639323));
#407 = CARTESIAN_POINT('',(77.827076861029,143.02569370164,
    16.954543578487));
#408 = CARTESIAN_POINT('',(76.887442024888,143.78851305532,
    16.237145582545));
#409 = CARTESIAN_POINT('',(76.454813110744,144.16968392548,
    15.940934248406));
#410 = CARTESIAN_POINT('',(76.014168235988,144.59502084906,
    15.675977321545));
#411 = CARTESIAN_POINT('',(75.572321697151,145.06683561437,
    15.450147834102));
#412 = CARTESIAN_POINT('',(75.136679559685,145.58663295139,
    15.271566427208));
#413 = CARTESIAN_POINT('',(74.302094341048,146.71115418417,
    15.028770739414));
#414 = CARTESIAN_POINT('',(73.905845302769,147.30951047858,
    14.963229155408));
#415 = CARTESIAN_POINT('',(73.54073960371,147.93863556311,
    14.961035212984));
#416 = CARTESIAN_POINT('',(73.216885141462,148.58395660567,
    15.023604780848));
#417 = CARTESIAN_POINT('',(72.938786667433,149.22804279543,
    15.145608268243));
#418 = CARTESIAN_POINT('',(72.507861052463,150.38326760959,
    15.457802651525));
#419 = CARTESIAN_POINT('',(72.341934757019,150.90174112401,
    15.635718124965));
#420 = CARTESIAN_POINT('',(72.205187776447,151.40420514706,
    15.842812488908));
#421 = CARTESIAN_POINT('',(72.094346466527,151.88826431159,
    16.074541080718));
#422 = CARTESIAN_POINT('',(72.006176235891,152.35204409383,
    16.326785866964));
#423 = CARTESIAN_POINT('',(71.837007491712,153.44219621455,
    16.990112220443));
#424 = CARTESIAN_POINT('',(71.777999978185,154.04685809577,
    17.422408349492));
#425 = CARTESIAN_POINT('',(71.750898494682,154.60706144195,
    17.884093077863));
#426 = CARTESIAN_POINT('',(71.747831669624,155.12316359607,
    18.370174790821));
#427 = CARTESIAN_POINT('',(71.762421413737,155.59561315783,
    18.878321781445));
#428 = CARTESIAN_POINT('',(71.81045937146,156.36948782906,
    19.836332001887));
#429 = CARTESIAN_POINT('',(71.839753136443,156.6863113168,
    20.278652926089));
#430 = CARTESIAN_POINT('',(71.873809281246,156.97265273722,
    20.733659810363));
#431 = CARTESIAN_POINT('',(71.909717866984,157.22695537482,
    21.200263272286));
#432 = CARTESIAN_POINT('',(71.944725272619,157.44749027405,
    21.67768644958));
#433 = CARTESIAN_POINT('',(72.006161668328,157.80535222808,
    22.622263384941));
#434 = CARTESIAN_POINT('',(72.033014327264,157.94718588401,
    23.08847379126));
#435 = CARTESIAN_POINT('',(72.054897092468,158.05522653402,
    23.561446846953));
#436 = CARTESIAN_POINT('',(72.070093524634,158.12790151915,
    24.038980103283));
#437 = CARTESIAN_POINT('',(72.07771329995,158.16434274185,
    24.519120507042));
#438 = CARTESIAN_POINT('',(72.07771329995,158.16434274185,25.));
#439 = ORIENTED_EDGE('',*,*,#327,.F.);
#440 = ORIENTED_EDGE('',*,*,#38,.F.);
#441 = ORIENTED_EDGE('',*,*,#152,.F.);
#442 = CYLINDRICAL_SURFACE('',#443,10.);
#443 = AXIS2_PLACEMENT_3D('',#444,#445,#446);
#444 = CARTESIAN_POINT('',(0.157631287024,105.09425864775,25.));
#445 = DIRECTION('',(-0.866025403784,-0.5,-2.2E-16));
#446 = DIRECTION('',(-0.5,0.866025403784,-5.6E-16));
#447 = ADVANCED_FACE('',(#448),#468,.T.);
#448 = FACE_BOUND('',#449,.T.);
#449 = EDGE_LOOP('',(#450,#459,#460,#461));
#450 = ORIENTED_EDGE('',*,*,#451,.F.);
#451 = EDGE_CURVE('',#137,#452,#454,.T.);
#452 = VERTEX_POINT('',#453);
#453 = CARTESIAN_POINT('',(10.,103.921272,45.));
#454 = CIRCLE('',#455,5.);
#455 = AXIS2_PLACEMENT_3D('',#456,#457,#458);
#456 = CARTESIAN_POINT('',(10.,103.921272,40.));
#457 = DIRECTION('',(-7.E-17,-1.,0.));
#458 = DIRECTION('',(1.,-7.E-17,0.));
#459 = ORIENTED_EDGE('',*,*,#144,.T.);
#460 = ORIENTED_EDGE('',*,*,#451,.T.);
#461 = ORIENTED_EDGE('',*,*,#462,.F.);
#462 = EDGE_CURVE('',#452,#452,#463,.T.);
#463 = CIRCLE('',#464,10.);
#464 = AXIS2_PLACEMENT_3D('',#465,#466,#467);
#465 = CARTESIAN_POINT('',(0.,103.921272,45.));
#466 = DIRECTION('',(-0.,0.,1.));
#467 = DIRECTION('',(1.,-7.E-17,0.));
#468 = TOROIDAL_SURFACE('',#469,10.,5.);
#469 = AXIS2_PLACEMENT_3D('',#470,#471,#472);
#470 = CARTESIAN_POINT('',(0.,103.921272,40.));
#471 = DIRECTION('',(0.,0.,1.));
#472 = DIRECTION('',(1.,-7.E-17,0.));
#473 = ADVANCED_FACE('',(#474),#493,.T.);
#474 = FACE_BOUND('',#475,.T.);
#475 = EDGE_LOOP('',(#476,#485,#491,#492));
#476 = ORIENTED_EDGE('',*,*,#477,.F.);
#477 = EDGE_CURVE('',#478,#478,#480,.T.);
#478 = VERTEX_POINT('',#479);
#479 = CARTESIAN_POINT('',(10.,0.,0.));
#480 = CIRCLE('',#481,10.);
#481 = AXIS2_PLACEMENT_3D('',#482,#483,#484);
#482 = CARTESIAN_POINT('',(0.,0.,0.));
#483 = DIRECTION('',(0.,-1.,-2.2E-16));
#484 = DIRECTION('',(1.,0.,0.));
#485 = ORIENTED_EDGE('',*,*,#486,.T.);
#486 = EDGE_CURVE('',#478,#186,#487,.T.);
#487 = LINE('',#488,#489);
#488 = CARTESIAN_POINT('',(10.,0.,0.));
#489 = VECTOR('',#490,1.);
#490 = DIRECTION('',(0.,1.,-2.2E-16));
#491 = ORIENTED_EDGE('',*,*,#185,.T.);
#492 = ORIENTED_EDGE('',*,*,#486,.F.);
#493 = CYLINDRICAL_SURFACE('',#494,10.);
#494 = AXIS2_PLACEMENT_3D('',#495,#496,#497);
#495 = CARTESIAN_POINT('',(0.,0.,0.));
#496 = DIRECTION('',(0.,-1.,2.2E-16));
#497 = DIRECTION('',(1.,0.,0.));
#498 = ADVANCED_FACE('',(#499),#502,.F.);
#499 = FACE_BOUND('',#500,.F.);
#500 = EDGE_LOOP('',(#501));
#501 = ORIENTED_EDGE('',*,*,#311,.T.);
#502 = PLANE('',#503);
#503 = AXIS2_PLACEMENT_3D('',#504,#505,#506);
#504 = CARTESIAN_POINT('',(-1.09E-15,103.921272,-20.));
#505 = DIRECTION('',(0.,-2.2E-16,1.));
#506 = DIRECTION('',(1.,0.,0.));
#507 = ADVANCED_FACE('',(#508,#535),#538,.T.);
#508 = FACE_BOUND('',#509,.F.);
#509 = EDGE_LOOP('',(#510,#520,#527,#528));
#510 = ORIENTED_EDGE('',*,*,#511,.F.);
#511 = EDGE_CURVE('',#512,#514,#516,.T.);
#512 = VERTEX_POINT('',#513);
#513 = CARTESIAN_POINT('',(99.750552722235,162.59425864775,10.));
#514 = VERTEX_POINT('',#515);
#515 = CARTESIAN_POINT('',(99.750552722235,162.59425864775,55.));
#516 = LINE('',#517,#518);
#517 = CARTESIAN_POINT('',(99.750552722235,162.59425864775,5.));
#518 = VECTOR('',#519,1.);
#519 = DIRECTION('',(-3.407883832489E-16,-6.973720558371E-17,1.));
#520 = ORIENTED_EDGE('',*,*,#521,.F.);
#521 = EDGE_CURVE('',#512,#512,#522,.T.);
#522 = CIRCLE('',#523,15.);
#523 = AXIS2_PLACEMENT_3D('',#524,#525,#526);
#524 = CARTESIAN_POINT('',(86.760171665468,155.09425864775,10.));
#525 = DIRECTION('',(-2.602627944163E-16,2.307883832489E-16,1.));
#526 = DIRECTION('',(0.866025403784,0.5,1.1E-16));
#527 = ORIENTED_EDGE('',*,*,#511,.T.);
#528 = ORIENTED_EDGE('',*,*,#529,.T.);
#529 = EDGE_CURVE('',#514,#514,#530,.T.);
#530 = CIRCLE('',#531,15.);
#531 = AXIS2_PLACEMENT_3D('',#532,#533,#534);
#532 = CARTESIAN_POINT('',(86.760171665468,155.09425864775,55.));
#533 = DIRECTION('',(-6.973720558371E-17,3.407883832489E-16,1.));
#534 = DIRECTION('',(0.866025403784,0.5,-1.1E-16));
#535 = FACE_BOUND('',#536,.F.);
#536 = EDGE_LOOP('',(#537));
#537 = ORIENTED_EDGE('',*,*,#335,.F.);
#538 = CYLINDRICAL_SURFACE('',#539,15.);
#539 = AXIS2_PLACEMENT_3D('',#540,#541,#542);
#540 = CARTESIAN_POINT('',(86.760171665468,155.09425864775,5.));
#541 = DIRECTION('',(2.602627944163E-16,-2.307883832489E-16,-1.));
#542 = DIRECTION('',(0.866025403784,0.5,1.1E-16));
#543 = ADVANCED_FACE('',(#544),#547,.T.);
#544 = FACE_BOUND('',#545,.T.);
#545 = EDGE_LOOP('',(#546));
#546 = ORIENTED_EDGE('',*,*,#462,.T.);
#547 = PLANE('',#548);
#548 = AXIS2_PLACEMENT_3D('',#549,#550,#551);
#549 = CARTESIAN_POINT('',(-1.09E-15,103.921272,45.));
#550 = DIRECTION('',(0.,-2.2E-16,1.));
#551 = DIRECTION('',(1.,0.,0.));
#552 = ADVANCED_FACE('',(#553),#556,.F.);
#553 = FACE_BOUND('',#554,.T.);
#554 = EDGE_LOOP('',(#555));
#555 = ORIENTED_EDGE('',*,*,#477,.T.);
#556 = PLANE('',#557);
#557 = AXIS2_PLACEMENT_3D('',#558,#559,#560);
#558 = CARTESIAN_POINT('',(-5.5E-16,0.,6.9E-16));
#559 = DIRECTION('',(0.,1.,2.2E-16));
#560 = DIRECTION('',(0.,-2.2E-16,1.));
#561 = ADVANCED_FACE('',(#562),#582,.T.);
#562 = FACE_BOUND('',#563,.F.);
#563 = EDGE_LOOP('',(#564,#573,#574,#575));
#564 = ORIENTED_EDGE('',*,*,#565,.F.);
#565 = EDGE_CURVE('',#512,#566,#568,.T.);
#566 = VERTEX_POINT('',#567);
#567 = CARTESIAN_POINT('',(95.420425703313,160.09425864775,5.));
#568 = CIRCLE('',#569,5.);
#569 = AXIS2_PLACEMENT_3D('',#570,#571,#572);
#570 = CARTESIAN_POINT('',(95.420425703313,160.09425864775,10.));
#571 = DIRECTION('',(-0.5,0.866025403784,-3.3E-16));
#572 = DIRECTION('',(0.866025403784,0.5,1.1E-16));
#573 = ORIENTED_EDGE('',*,*,#521,.F.);
#574 = ORIENTED_EDGE('',*,*,#565,.T.);
#575 = ORIENTED_EDGE('',*,*,#576,.T.);
#576 = EDGE_CURVE('',#566,#566,#577,.T.);
#577 = CIRCLE('',#578,10.);
#578 = AXIS2_PLACEMENT_3D('',#579,#580,#581);
#579 = CARTESIAN_POINT('',(86.760171665468,155.09425864775,5.));
#580 = DIRECTION('',(-2.602627944163E-16,2.307883832489E-16,1.));
#581 = DIRECTION('',(0.866025403784,0.5,1.1E-16));
#582 = TOROIDAL_SURFACE('',#583,10.,5.);
#583 = AXIS2_PLACEMENT_3D('',#584,#585,#586);
#584 = CARTESIAN_POINT('',(86.760171665468,155.09425864775,10.));
#585 = DIRECTION('',(2.602627944163E-16,-2.307883832489E-16,-1.));
#586 = DIRECTION('',(0.866025403784,0.5,1.1E-16));
#587 = ADVANCED_FACE('',(#588),#591,.T.);
#588 = FACE_BOUND('',#589,.T.);
#589 = EDGE_LOOP('',(#590));
#590 = ORIENTED_EDGE('',*,*,#529,.T.);
#591 = PLANE('',#592);
#592 = AXIS2_PLACEMENT_3D('',#593,#594,#595);
#593 = CARTESIAN_POINT('',(86.760171665468,155.09425864775,55.));
#594 = DIRECTION('',(-2.307883832489E-16,-2.602627944163E-16,1.));
#595 = DIRECTION('',(0.866025403784,0.5,3.3E-16));
#596 = ADVANCED_FACE('',(#597),#600,.F.);
#597 = FACE_BOUND('',#598,.F.);
#598 = EDGE_LOOP('',(#599));
#599 = ORIENTED_EDGE('',*,*,#576,.T.);
#600 = PLANE('',#601);
#601 = AXIS2_PLACEMENT_3D('',#602,#603,#604);
#602 = CARTESIAN_POINT('',(86.760171665468,155.09425864775,5.));
#603 = DIRECTION('',(-2.307883832489E-16,-2.602627944163E-16,1.));
#604 = DIRECTION('',(0.866025403784,0.5,3.3E-16));
#605 = ( GEOMETRIC_REPRESENTATION_CONTEXT(3) 
GLOBAL_UNCERTAINTY_ASSIGNED_CONTEXT((#609)) GLOBAL_UNIT_ASSIGNED_CONTEXT
((#606,#607,#608)) REPRESENTATION_CONTEXT('Context #1',
  '3D Context with UNIT and UNCERTAINTY') );
#606 = ( LENGTH_UNIT() NAMED_UNIT(*) SI_UNIT(.MILLI.,.METRE.) );
#607 = ( NAMED_UNIT(*) PLANE_ANGLE_UNIT() SI_UNIT($,.RADIAN.) );
#608 = ( NAMED_UNIT(*) SI_UNIT($,.STERADIAN.) SOLID_ANGLE_UNIT() );
#609 = UNCERTAINTY_MEASURE_WITH_UNIT(LENGTH_MEASURE(1.E-07),#606,
  'distance_accuracy_value','confusion accuracy');
#610 = PRODUCT_RELATED_PRODUCT_CATEGORY('part',$,(#7));
#611 = MECHANICAL_DESIGN_GEOMETRIC_PRESENTATION_REPRESENTATION('',(#612)
  ,#605);
#612 = STYLED_ITEM('color',(#613),#15);
#613 = PRESENTATION_STYLE_ASSIGNMENT((#614,#620));
#614 = SURFACE_STYLE_USAGE(.BOTH.,#615);
#615 = SURFACE_SIDE_STYLE('',(#616));
#616 = SURFACE_STYLE_FILL_AREA(#617);
#617 = FILL_AREA_STYLE('',(#618));
#618 = FILL_AREA_STYLE_COLOUR('',#619);
#619 = COLOUR_RGB('',0.447059003357,0.474510015008,0.501960993452);
#620 = CURVE_STYLE('',#621,POSITIVE_LENGTH_MEASURE(0.1),#622);
#621 = DRAUGHTING_PRE_DEFINED_CURVE_FONT('continuous');
#622 = COLOUR_RGB('',9.803921802644E-02,9.803921802644E-02,
  9.803921802644E-02);
ENDSEC;
END-ISO-10303-21;
